<?xml version="1.0" encoding="UTF-8" standalone="no"?>
<!-- Created with Inkscape (http://www.inkscape.org/) -->

<svg
   width="128"
   height="128"
   viewBox="0 0 33.866667 33.866667"
   version="1.1"
   id="svg1"
   inkscape:version="1.4.4 (dcaf3e7, 2026-05-05)"
   sodipodi:docname="favicon.svg"
   xmlns:inkscape="http://www.inkscape.org/namespaces/inkscape"
   xmlns:sodipodi="http://sodipodi.sourceforge.net/DTD/sodipodi-0.dtd"
   xmlns:xlink="http://www.w3.org/1999/xlink"
   xmlns="http://www.w3.org/2000/svg"
   xmlns:svg="http://www.w3.org/2000/svg"
   xmlns:rdf="http://www.w3.org/1999/02/22-rdf-syntax-ns#"
   xmlns:cc="http://creativecommons.org/ns#"
   xmlns:dc="http://purl.org/dc/elements/1.1/">
  <title
     id="title1">Betula Logo v2.0</title>
  <sodipodi:namedview
     id="namedview1"
     pagecolor="#ffffff"
     bordercolor="#000000"
     borderopacity="0.25"
     inkscape:showpageshadow="2"
     inkscape:pageopacity="0.0"
     inkscape:pagecheckerboard="true"
     inkscape:deskcolor="#d1d1d1"
     inkscape:document-units="mm"
     inkscape:zoom="6.3028824"
     inkscape:cx="71.951208"
     inkscape:cy="60.845178"
     inkscape:window-width="1862"
     inkscape:window-height="1022"
     inkscape:window-x="58"
     inkscape:window-y="30"
     inkscape:window-maximized="0"
     inkscape:current-layer="layer1"
     inkscape:clip-to-page="false"
     inkscape:antialias-rendering="true"
     showgrid="true"
     showguides="false">
    <inkscape:grid
       id="grid28"
       units="px"
       originx="0"
       originy="0"
       spacingx="2.1166667"
       spacingy="2.1166667"
       empcolor="#0099e5"
       empopacity="0.30196078"
       color="#0099e5"
       opacity="0.14901961"
       empspacing="4"
       enabled="true"
       visible="true" />
  </sodipodi:namedview>
  <defs
     id="defs1">
    <linearGradient
       id="linearGradient34">
      <stop
         style="stop-color:#ededed;stop-opacity:1;"
         offset="0.15291263"
         id="stop32" />
      <stop
         style="stop-color:#ffffff;stop-opacity:1;"
         offset="0.49514565"
         id="stop33" />
      <stop
         style="stop-color:#ededed;stop-opacity:1;"
         offset="0.84951454"
         id="stop34" />
    </linearGradient>
    <linearGradient
       id="linearGradient23">
      <stop
         style="stop-color:#ffffff;stop-opacity:1;"
         offset="1"
         id="stop26" />
      <stop
         style="stop-color:#ffffff;stop-opacity:0;"
         offset="1"
         id="stop27" />
    </linearGradient>
    <linearGradient
       id="linearGradient23-1">
      <stop
         style="stop-color:#f8f8f8;stop-opacity:1;"
         offset="0"
         id="stop24" />
      <stop
         style="stop-color:#ffffff;stop-opacity:1;"
         offset="0.49514565"
         id="stop28" />
      <stop
         style="stop-color:#f7f7f7;stop-opacity:1;"
         offset="0.95330697"
         id="stop25" />
    </linearGradient>
    <linearGradient
       id="swatch23"
       inkscape:swatch="solid">
      <stop
         style="stop-color:#ffffff;stop-opacity:1;"
         offset="0"
         id="stop23" />
    </linearGradient>
    <linearGradient
       id="swatch17"
       inkscape:swatch="solid">
      <stop
         style="stop-color:#000000;stop-opacity:1;"
         offset="0"
         id="stop17" />
    </linearGradient>
    <linearGradient
       inkscape:collect="always"
       xlink:href="#linearGradient23-1"
       id="linearGradient10"
       x1="23.135166"
       y1="64.051338"
       x2="101.33464"
       y2="64.051338"
       gradientUnits="userSpaceOnUse" />
    <linearGradient
       inkscape:collect="always"
       xlink:href="#linearGradient23-1"
       id="linearGradient12"
       x1="23.135166"
       y1="64.051338"
       x2="101.33464"
       y2="64.051338"
       gradientUnits="userSpaceOnUse" />
  </defs>
  <path
     id="outline"
     style="display:inline;fill:none;stroke-width:1.26499995;stroke-dasharray:none;stroke:#ffffff;stroke-opacity:0.9537037;stroke-linecap:round;stroke-linejoin:round"
     d="m 4.1254714,24.407445 c -0.6957687,6.175682 3.6214692,4.456591 3.978646,0.570791 m -5.195875,0.884269 c 1.3597779,-0.448439 2.3095194,-0.579624 3.6412056,-0.129345 0.725948,0.27697 1.4770174,0.367829 2.1468012,0.759739 0.290643,0.16795 0.577695,0.34243 0.83008,0.5647 0.0921,-0.554713 0.4063843,-1.636988 0.343198,-1.686824 -1.7851136,-1.74616 -4.3990573,-1.677714 -7.3296387,-0.933224 z m 0.193121,-12.547259 c 0.287257,10.76243 9.0448666,4.34784 7.8200006,-0.26606 m -9.4116186,1.764873 c 2.2836372,-1.150927 5.3312642,-1.519716 7.784399,-1.232553 0.5454078,0.0638 0.6574438,0.0957 1.1862176,0.19839 0.868935,0.18291 1.705556,0.46292 2.514905,0.79955 0.456038,0.19879 0.896013,0.42508 1.331063,0.65834 0.200451,0.10768 0.394645,0.21949 0.550618,0.37682 l 0.85369,-2.03747 v 0 C 11.415662,11.430246 5.6843111,10.826902 1.1489864,13.155696 Z M 19.583975,18.00972 c -1.305609,7.61338 8.247951,11.19093 9.907189,-2.84508 m -17.159879,9.315368 c 2.284829,-3.287534 6.14978,-5.530594 10.579486,-7.04976 1.769311,-0.606789 3.288553,-0.830827 5.279935,-0.86503 1.857241,-0.09116 3.476919,0.562462 4.444324,2.18988 l 0.06484,-2.2208 v 0 c -1.041495,-1.709328 -2.820877,-2.227014 -4.719663,-2.18576 -6.383608,0.115304 -13.343267,3.927336 -16.10159,7.94121 z m -8.069466,4.45789 c 0.6999698,1.941267 5.873144,3.165948 14.177085,2.645981 2.595346,-0.162512 6.889665,-1.048586 9.284291,-2.05817 -0.32255,-0.919239 -0.568585,-1.397313 -1.233249,-1.385123 -7.131292,1.837828 -15.761745,2.472413 -20.1600442,0.60095 z M 4.2562991,6.3562456 c 0.00878,4.3303804 -0.016051,21.7222604 -0.00257,22.5837014 l 2.0746356,0.629279 0.011064,-0.05532 C 6.5442913,21.533098 6.27658,31.041885 6.4263847,12.912377 6.4117747,11.234787 6.4059767,8.6459213 6.3837137,6.9694213 Z M 24.884636,6.8309487 C 19.168598,7.6861939 9.8209733,7.7591597 6.4494057,6.1401913 5.3519696,5.6132215 7.0572041,4.933725 7.6471594,4.7937814 12.967284,3.3988499 22.454385,4.0365134 25.795231,5.3068741 26.6172,5.6194287 26.654282,6.7849334 26.7274,7.2035734 c 0.0983,0.83745 0.126451,0.8305009 0.112131,1.6697809 -0.03732,1.5643897 -0.07576,2.8653417 -0.151518,4.4281017 -0.112478,2.27472 -0.233472,4.54898 -0.354357,6.82324 -0.08448,1.58346 -0.169364,3.16692 -0.254645,4.75035 -0.03048,0.88482 -0.03151,1.77051 -0.04065,2.65589 -0.01565,0.53047 0.0021,1.06299 -0.04112,1.59221 -0.008,0.0698 -0.08728,0.379081 -0.09527,0.448821 l 2.623816,0.05062 c -0.02608,-2.947107 0.03916,-5.902866 0.196142,-8.847353 0.120931,-2.27455 0.241863,-4.54912 0.354655,-6.82411 0.07606,-1.56473 0.155298,-3.12954 0.194148,-4.6958602 0.01559,-0.85061 0.03712,-1.70405 -0.05051,-2.55347 -0.0656,-0.44549 -0.183622,-0.87551 -0.403859,-1.28397 C 28.571543,4.9914838 28.023809,4.2936122 27.552205,4.0359305 23.574378,1.8624711 11.641613,1.3274581 5.1155112,3.5377537 3.3771473,4.1265121 3.7841293,6.0532236 3.9674181,6.4691948 4.3674841,7.3771648 4.8954848,7.215823 5.848831,7.4127553 12.587192,8.8046955 17.537418,9.2262494 24.97896,7.9492956 Z" />
  <g
     inkscape:label="Layer 1"
     inkscape:groupmode="layer"
     id="layer1"
     style="display:inline">
    <path
       style="display:inline;fill:url(#linearGradient10);fill-opacity:1;stroke:url(#linearGradient12);stroke-width:0.834398;stroke-linecap:round;stroke-linejoin:round;stroke-dasharray:none;paint-order:stroke markers fill"
       d="m 45.052574,112.63892 c -6.958043,-0.37796 -13.884724,-1.54922 -18.351003,-3.10304 -2.900036,-1.00893 -2.617801,-0.80841 -2.617801,-1.85984 0,-0.87078 0.03754,-0.95175 0.603427,-1.30149 1.536867,-0.94983 3.606847,-3.72413 4.591858,-6.15425 0.262139,-0.646722 0.576345,-1.176827 0.698235,-1.17801 0.729255,-0.0071 3.593008,1.49409 5.221259,2.73696 0.432786,0.33036 0.80671,0.57564 0.830943,0.54508 0.124649,-0.15721 1.323627,-5.708789 1.320941,-6.116304 -0.0024,-0.371464 -0.248951,-0.678286 -1.121688,-1.39616 -2.837152,-2.333714 -6.178654,-3.698372 -10.268885,-4.193777 l -1.70157,-0.206092 v -8.849636 -8.849637 l 1.00349,-0.117295 c 1.354367,-0.158307 3.901504,-1.014431 5.237907,-1.760525 3.703658,-2.067696 7.180556,-5.782717 9.209415,-9.84014 1.157762,-2.315354 1.998249,-5.229815 2.003867,-6.948582 0.0045,-1.391918 0.04237,-1.402292 2.382345,-0.653395 1.135885,0.363534 2.829932,0.965117 3.764552,1.336853 2.220338,0.883119 6.450427,3.000466 7.523722,3.765959 0.465335,0.331884 0.876724,0.572767 0.914199,0.535295 0.08577,-0.08577 2.970052,-6.967929 3.125525,-7.457781 0.100798,-0.317584 -0.07267,-0.448268 -1.423288,-1.072256 -5.416938,-2.502634 -11.71183,-4.464075 -17.542727,-5.466185 -4.36334,-0.749892 -5.951321,-0.874573 -11.18135,-0.877901 l -5.017247,-0.0032 -2.05e-4,-7.821534 c -1.93e-4,-7.369307 0.01745,-7.815991 0.305205,-7.725667 0.655428,0.205736 10.941344,2.02078 13.830715,2.440556 16.843313,2.447044 29.908058,2.59458 46.335079,0.523245 3.322719,-0.418972 8.429033,-1.178699 9.313592,-1.385693 l 0.413066,-0.09666 -0.123852,-2.042166 c -0.06812,-1.123192 -0.177925,-2.099602 -0.244017,-2.169801 -0.06609,-0.0702 -1.256447,0.02323 -2.645236,0.207632 -17.367955,2.306033 -39.337454,2.51645 -53.484932,0.512267 -5.050492,-0.715471 -9.638287,-1.827485 -12.474419,-3.023614 -2.105132,-0.887832 -2.651343,-1.466655 -2.202708,-2.334221 1.231452,-2.381365 9.474524,-4.478467 21.783012,-5.541769 4.375855,-0.37802 16.20867,-0.524366 21.515407,-0.266098 12.691288,0.617658 22.927897,2.106599 29.606644,4.306362 1.434254,0.472396 2.006862,0.756566 2.510926,1.246107 0.965164,0.937356 1.590343,2.437713 1.983113,4.759193 0.6872,4.061796 0.75765,5.623071 0.55519,12.303665 -0.22751,7.506889 -0.50643,14.320899 -0.63664,15.552719 l -0.0944,0.893035 -1.34287,0.12118 C 94.901567,54.99671 88.365609,56.491925 82.722513,58.372988 68.139941,63.233921 54.366485,72.12364 46.814286,81.549021 c -2.284394,2.850995 -2.144399,2.022852 -1.15837,6.852354 0.469526,2.299704 0.89295,4.181161 0.940943,4.181019 0.04799,-1.43e-4 0.754579,-0.881719 1.570192,-1.959057 1.754576,-2.317609 5.124542,-5.851436 7.667939,-8.040779 4.275781,-3.680574 8.903272,-6.751907 14.896185,-9.88682 l 2.690038,-1.407167 0.105691,2.837389 c 0.162091,4.351462 0.893154,7.333302 2.609499,10.643562 2.931511,5.653907 8.136445,8.966106 13.560421,8.629276 0.915438,-0.05685 2.135637,-0.229767 2.711553,-0.384259 1.499065,-0.402132 3.724752,-1.514419 5.074262,-2.535858 0.639251,-0.483849 1.180047,-0.856243 1.201769,-0.827545 0.02172,0.0287 -0.02083,0.994588 -0.09456,2.146421 -0.07373,1.151832 -0.140232,3.507853 -0.147783,5.235602 -0.0076,1.727749 -0.06518,4.613611 -0.12807,6.413021 l -0.11434,3.27166 -0.626876,0.17437 c -1.435297,0.39922 -7.867735,1.77974 -11.359863,2.43803 -14.468661,2.72744 -29.546994,3.93952 -41.16034,3.30868 z"
       id="trunk"
       transform="scale(0.26458333)" />
    <path
       style="display:inline;fill:#000000;stroke-width:0.207722;stroke-dasharray:none"
       id="top-right"
       d="M 24.884636,6.8309487 C 19.168598,7.6861939 9.8209733,7.7591597 6.4494057,6.1401913 5.3519696,5.6132215 7.0572041,4.933725 7.6471594,4.7937814 12.967284,3.3988499 22.454385,4.0365134 25.795231,5.3068741 26.6172,5.6194287 26.654282,6.7849334 26.7274,7.2035734 c 0.0983,0.83745 0.126451,0.8305009 0.112131,1.6697809 -0.03732,1.5643897 -0.07576,2.8653417 -0.151518,4.4281017 -0.112478,2.27472 -0.233472,4.54898 -0.354357,6.82324 -0.08448,1.58346 -0.169364,3.16692 -0.254645,4.75035 -0.03048,0.88482 -0.03151,1.77051 -0.04065,2.65589 -0.01565,0.53047 0.0021,1.06299 -0.04112,1.59221 -0.008,0.0698 -0.08728,0.379081 -0.09527,0.448821 l 2.623816,0.05062 c -0.02608,-2.947107 0.03916,-5.902866 0.196142,-8.847353 0.120931,-2.27455 0.241863,-4.54912 0.354655,-6.82411 0.07606,-1.56473 0.155298,-3.12954 0.194148,-4.6958602 0.01559,-0.85061 0.03712,-1.70405 -0.05051,-2.55347 -0.0656,-0.44549 -0.183622,-0.87551 -0.403859,-1.28397 C 28.571543,4.9914838 28.023809,4.2936122 27.552205,4.0359305 23.574378,1.8624711 11.641613,1.3274581 5.1155112,3.5377537 3.3771473,4.1265121 3.7841293,6.0532236 3.9674181,6.4691948 4.3674841,7.3771648 4.8954848,7.215823 5.848831,7.4127553 12.587192,8.8046955 17.537418,9.2262494 24.97896,7.9492956 Z"
       sodipodi:nodetypes="csssccccccccccccccsssscc" />
    <path
       style="display:inline;fill:#000000;stroke-width:0.207722;stroke-dasharray:none"
       id="axis"
       d="m 4.2562991,6.3562456 c 0.00878,4.3303804 -0.016051,21.7222604 -0.00257,22.5837014 l 2.0746356,0.629279 0.011064,-0.05532 C 6.5442913,21.533098 6.27658,31.041885 6.4263847,12.912377 6.4117747,11.234787 6.4059767,8.6459213 6.3837137,6.9694213 Z"
       sodipodi:nodetypes="cccsccc" />
    <path
       style="display:inline;fill:#000000;stroke-width:0.207722;stroke-dasharray:none"
       id="foundation"
       d="m 4.261819,28.937898 c 0.6999698,1.941267 5.873144,3.165948 14.177085,2.645981 2.595346,-0.162512 6.889665,-1.048586 9.284291,-2.05817 -0.32255,-0.919239 -0.568585,-1.397313 -1.233249,-1.385123 -7.131292,1.837828 -15.761745,2.472413 -20.1600442,0.60095 z"
       sodipodi:nodetypes="cscccc" />
    <path
       style="display:inline;fill:#000000;stroke-width:0.207722;stroke-dasharray:none"
       id="lash1"
       d="m 12.331285,24.480008 c 2.284829,-3.287534 6.14978,-5.530594 10.579486,-7.04976 1.769311,-0.606789 3.288553,-0.830827 5.279935,-0.86503 1.857241,-0.09116 3.476919,0.562462 4.444324,2.18988 l 0.06484,-2.2208 v 0 c -1.041495,-1.709328 -2.820877,-2.227014 -4.719663,-2.18576 -6.383608,0.115304 -13.343267,3.927336 -16.10159,7.94121 z"
       sodipodi:nodetypes="cscccsccc" />
    <path
       style="display:inline;fill:#000000;stroke-width:0.207722;stroke-dasharray:none"
       d="m 19.583975,18.00972 c -1.305609,7.61338 8.247951,11.19093 9.907189,-2.84508"
       id="eye1" />
    <path
       style="display:inline;fill:#000000;stroke-width:0.207722;stroke-dasharray:none"
       id="lash2"
       d="m 1.5097454,14.814059 c 2.2836372,-1.150927 5.3312642,-1.519716 7.784399,-1.232553 0.5454078,0.0638 0.6574438,0.0957 1.1862176,0.19839 0.868935,0.18291 1.705556,0.46292 2.514905,0.79955 0.456038,0.19879 0.896013,0.42508 1.331063,0.65834 0.200451,0.10768 0.394645,0.21949 0.550618,0.37682 l 0.85369,-2.03747 v 0 C 11.415662,11.430246 5.6843111,10.826902 1.1489864,13.155696 Z"
       sodipodi:nodetypes="cccccccscc" />
    <path
       style="display:inline;fill:#000000;stroke-width:0.207722;stroke-dasharray:none"
       d="m 3.1013634,13.315246 c 0.287257,10.76243 9.0448666,4.34784 7.8200006,-0.26606"
       id="eye2"
       sodipodi:nodetypes="cc" />
    <path
       style="display:inline;fill:#000000;stroke-width:0.264999;stroke-dasharray:none"
       id="lash3"
       d="m 2.9082424,25.862505 c 1.3597779,-0.448439 2.3095194,-0.579624 3.6412056,-0.129345 0.725948,0.27697 1.4770174,0.367829 2.1468012,0.759739 0.290643,0.16795 0.577695,0.34243 0.83008,0.5647 0.0921,-0.554713 0.4063843,-1.636988 0.343198,-1.686824 -1.7851136,-1.74616 -4.3990573,-1.677714 -7.3296387,-0.933224 z"
       sodipodi:nodetypes="ccccscc" />
    <path
       style="display:inline;fill:#000000;stroke-width:0.264999;stroke-dasharray:none"
       d="m 4.1254714,24.407445 c -0.6957687,6.175682 3.6214692,4.456591 3.978646,0.570791"
       id="eye3"
       sodipodi:nodetypes="cc" />
  </g>
  <metadata
     id="metadata1">
    <rdf:RDF>
      <cc:Work
         rdf:about="">
        <cc:license
           rdf:resource="http://creativecommons.org/publicdomain/zero/1.0/" />
        <dc:title>Betula Logo v2.0</dc:title>
        <dc:date>2026-07-09</dc:date>
        <dc:creator>
          <cc:Agent>
            <dc:title>Timur Ismagilov &lt;https://bouncepaw.com</dc:title>
          </cc:Agent>
        </dc:creator>
      </cc:Work>
      <cc:License
         rdf:about="http://creativecommons.org/publicdomain/zero/1.0/">
        <cc:permits
           rdf:resource="http://creativecommons.org/ns#Reproduction" />
        <cc:permits
           rdf:resource="http://creativecommons.org/ns#Distribution" />
        <cc:permits
           rdf:resource="http://creativecommons.org/ns#DerivativeWorks" />
      </cc:License>
    </rdf:RDF>
  </metadata>
</svg>
