<?xml version="1.0" encoding="UTF-8" standalone="no"?>
<!-- Created with Inkscape (http://www.inkscape.org/) -->

<svg
   width="128"
   height="128"
   viewBox="0 0 33.866667 33.866667"
   version="1.1"
   id="svg1"
   inkscape:version="1.4.4 (dcaf3e7, 2026-05-05)"
   sodipodi:docname="favicon.svg"
   xmlns:inkscape="http://www.inkscape.org/namespaces/inkscape"
   xmlns:sodipodi="http://sodipodi.sourceforge.net/DTD/sodipodi-0.dtd"
   xmlns:xlink="http://www.w3.org/1999/xlink"
   xmlns="http://www.w3.org/2000/svg"
   xmlns:svg="http://www.w3.org/2000/svg"
   xmlns:rdf="http://www.w3.org/1999/02/22-rdf-syntax-ns#"
   xmlns:cc="http://creativecommons.org/ns#"
   xmlns:dc="http://purl.org/dc/elements/1.1/">
  <title
     id="title1">Betula Logo v2.0</title>
  <sodipodi:namedview
     id="namedview1"
     pagecolor="#ffffff"
     bordercolor="#000000"
     borderopacity="0.25"
     inkscape:showpageshadow="2"
     inkscape:pageopacity="0.0"
     inkscape:pagecheckerboard="true"
     inkscape:deskcolor="#d1d1d1"
     inkscape:document-units="mm"
     inkscape:zoom="2.6689987"
     inkscape:cx="-44.024"
     inkscape:cy="90.108699"
     inkscape:window-width="1869"
     inkscape:window-height="1022"
     inkscape:window-x="51"
     inkscape:window-y="31"
     inkscape:window-maximized="0"
     inkscape:current-layer="layer1"
     inkscape:clip-to-page="false"
     inkscape:antialias-rendering="true"
     showgrid="false"
     showguides="false">
    <inkscape:grid
       id="grid28"
       units="px"
       originx="0"
       originy="0"
       spacingx="1.0583333"
       spacingy="1.0583333"
       empcolor="#0099e5"
       empopacity="0.30196078"
       color="#0099e5"
       opacity="0.14901961"
       empspacing="4"
       enabled="true"
       visible="false" />
  </sodipodi:namedview>
  <defs
     id="defs1">
    <linearGradient
       id="linearGradient34">
      <stop
         style="stop-color:#ededed;stop-opacity:1;"
         offset="0.15291263"
         id="stop32" />
      <stop
         style="stop-color:#ffffff;stop-opacity:1;"
         offset="0.49514565"
         id="stop33" />
      <stop
         style="stop-color:#ededed;stop-opacity:1;"
         offset="0.84951454"
         id="stop34" />
    </linearGradient>
    <linearGradient
       id="linearGradient23">
      <stop
         style="stop-color:#ffffff;stop-opacity:1;"
         offset="1"
         id="stop26" />
      <stop
         style="stop-color:#ffffff;stop-opacity:0;"
         offset="1"
         id="stop27" />
    </linearGradient>
    <linearGradient
       id="linearGradient23-1">
      <stop
         style="stop-color:#ededed;stop-opacity:1;"
         offset="0.15291263"
         id="stop24" />
      <stop
         style="stop-color:#ffffff;stop-opacity:1;"
         offset="0.49514565"
         id="stop28" />
      <stop
         style="stop-color:#eeeeee;stop-opacity:1;"
         offset="0.84951454"
         id="stop25" />
    </linearGradient>
    <linearGradient
       id="swatch23"
       inkscape:swatch="solid">
      <stop
         style="stop-color:#ffffff;stop-opacity:1;"
         offset="0"
         id="stop23" />
    </linearGradient>
    <linearGradient
       id="swatch17"
       inkscape:swatch="solid">
      <stop
         style="stop-color:#000000;stop-opacity:1;"
         offset="0"
         id="stop17" />
    </linearGradient>
    <linearGradient
       inkscape:collect="always"
       xlink:href="#linearGradient34"
       id="linearGradient36"
       x1="24.106836"
       y1="65.785675"
       x2="101.21291"
       y2="65.785675"
       gradientUnits="userSpaceOnUse" />
  </defs>
  <g
     inkscape:label="Layer 1"
     inkscape:groupmode="layer"
     id="layer1"
     style="display:inline">
    <g
       id="g36"
       style="display:inline">
      <path
         id="betulin"
         style="display:inline;stroke-width:1.465;stroke-dasharray:none;fill:#ffffff;stroke:#f7f7f7;stroke-opacity:0.86880469;fill-opacity:1;stroke-linejoin:round;stroke-linecap:round"
         d="m 5.0206836,24.786186 c -2.472124,5.9216 5.0592304,3.44947 4.599299,1.14982 m -4.991759,-0.04357 c 0.439757,-0.0139 0.877691,0.0221 1.31456,0.0674 0.834007,0.1019 1.644492,0.31603 2.436536,0.5907 0.725948,0.27697 1.416544,0.63996 2.0863284,1.03187 0.290643,0.16795 0.577695,0.34243 0.83008,0.5647 0.0921,-0.554713 0.406384,-1.636988 0.343198,-1.686824 -1.7851144,-1.746161 -4.1228264,-2.001285 -6.4707984,-2.17169 z m -1.528961,-12.57896 c 0.287257,10.76243 9.0448674,4.34784 7.8200014,-0.26606 m -9.4116194,1.764873 c 2.283638,-1.150927 5.331265,-1.519716 7.784399,-1.232553 0.545408,0.0638 0.657444,0.0957 1.1862184,0.19839 0.868935,0.18291 1.705556,0.46292 2.514905,0.79955 0.456038,0.19879 0.896013,0.42508 1.331063,0.65834 0.200451,0.10768 0.394645,0.21949 0.550618,0.37682 l 0.85369,-2.03747 v 0 C 11.413562,11.428476 5.6822106,10.825132 1.1468856,13.153926 Z M 19.581875,18.00795 c -1.305609,7.61338 8.247951,11.19093 9.907189,-2.84508 m -17.159879,9.315368 c 2.284829,-3.287534 6.14978,-5.530594 10.579486,-7.04976 1.769311,-0.606789 3.288553,-0.830827 5.279935,-0.86503 1.857241,-0.09116 3.476919,0.562462 4.444324,2.18988 l 0.06484,-2.2208 v 0 c -1.041495,-1.709328 -2.820877,-2.227014 -4.719663,-2.18576 -6.383608,0.115304 -13.343267,3.927336 -16.10159,7.94121 z M 4.3072596,28.9302 c 0.883603,0.571083 6.0671874,3.629964 14.3775444,2.671666 2.161803,-0.277591 9.721047,-2.537406 9.304678,-2.26156 0.03059,-0.0152 -0.836972,-1.21368 -1.501636,-1.20149 -7.772285,2.917903 -12.595359,3.310217 -20.1600444,0.60095 z M 4.2541986,6.8852338 c 0.0088,4.3303812 -0.01605,21.1915022 -0.0026,22.0529432 l 2.074636,0.629279 0.01106,-0.05532 c 0.145599,-0.727999 0.01059,-1.429269 0.01647,-2.171679 0.01833,-1.92229 0.03973,-3.833656 0.0353,-5.756256 -0.0057,-2.88804 0.01133,-5.786034 0.03519,-8.673594 -0.01461,-1.67759 -0.02041,-3.3546511 -0.04267,-5.0311511 z M 23.255023,8.473922 C 16.686932,8.4929087 10.164695,8.7892981 7.2634416,7.0287273 6.6350826,6.6474197 6.1845156,6.4510868 6.3879766,5.9239286 6.8308346,5.3048272 6.9510876,5.2326849 7.6450586,4.8820349 10.371237,3.8881567 24.532656,4.0075369 25.906538,5.2802784 c 0.464853,0.6615736 0.745644,1.5028843 0.818762,1.9215243 0.0983,0.83745 0.126451,0.8305009 0.112131,1.6697809 -0.03732,1.5643904 -0.07576,2.8653424 -0.151518,4.4281024 -0.112478,2.27472 -0.233472,4.54898 -0.354357,6.82324 -0.08448,1.58346 -0.169364,3.16692 -0.254645,4.75035 -0.03048,0.88482 -0.03151,1.77051 -0.04065,2.65589 -0.01565,0.53047 0.0021,1.06299 -0.04112,1.59221 -0.008,0.0698 -0.08728,0.379081 -0.09527,0.448821 l 2.623816,0.05062 c -0.02608,-2.947107 0.03916,-5.902866 0.196142,-8.847353 0.120931,-2.27455 0.241863,-4.54912 0.354655,-6.82411 0.07606,-1.56473 0.155298,-3.12954 0.194148,-4.6958609 0.01559,-0.85061 0.03712,-1.70405 -0.05051,-2.55347 -0.0656,-0.44549 -0.183622,-0.87551 -0.403859,-1.28397 -0.24482,-0.42634 -0.883921,-1.162983 -1.391539,-1.339433 C 21.752393,2.8974037 15.813208,3.2370853 10.210581,3.2299109 c -1.7806384,0.122 -3.2536874,0.082064 -4.8737454,0.7959037 -0.765423,0.4147 -1.618281,0.91992 -1.870486,1.74647 -0.07201,0.2359858 -0.06009,0.5934762 0.03814,0.81641 0.400066,0.90797 1.626103,1.206727 2.513465,1.607027 4.5682204,1.1668067 7.4826664,1.4824291 17.2429414,1.3386438 z" />
    </g>
    <path
       style="display:inline;fill:#000000;stroke-width:0.207722;stroke-dasharray:none"
       id="path75"
       d="M 23.257123,8.4756927 C 16.689032,8.4946794 10.166795,8.7910688 7.2655419,7.030498 6.6371832,6.6491904 6.1866161,6.4528575 6.390077,5.9256993 6.8329349,5.3065979 6.9531884,5.2344556 7.6471594,4.8838056 10.373337,3.8899274 24.534756,4.0093076 25.908638,5.2820491 c 0.464853,0.6615736 0.745644,1.5028843 0.818762,1.9215243 0.0983,0.83745 0.126451,0.8305009 0.112131,1.6697809 -0.03732,1.5643897 -0.07576,2.8653417 -0.151518,4.4281017 -0.112478,2.27472 -0.233472,4.54898 -0.354357,6.82324 -0.08448,1.58346 -0.169364,3.16692 -0.254645,4.75035 -0.03048,0.88482 -0.03151,1.77051 -0.04065,2.65589 -0.01565,0.53047 0.0021,1.06299 -0.04112,1.59221 -0.008,0.0698 -0.08728,0.379081 -0.09527,0.448821 l 2.623816,0.05062 c -0.02608,-2.947107 0.03916,-5.902866 0.196142,-8.847353 0.120931,-2.27455 0.241863,-4.54912 0.354655,-6.82411 0.07606,-1.56473 0.155298,-3.12954 0.194148,-4.6958602 0.01559,-0.85061 0.03712,-1.70405 -0.05051,-2.55347 -0.0656,-0.44549 -0.183622,-0.87551 -0.403859,-1.28397 -0.24482,-0.42634 -0.883921,-1.162983 -1.391539,-1.339433 C 21.754493,2.8991744 15.815308,3.238856 10.212681,3.2316816 c -1.7806384,0.122 -3.2536866,0.082064 -4.8737446,0.7959037 -0.765423,0.4147 -1.618281,0.91992 -1.870486,1.74647 -0.072009,0.2359858 -0.060091,0.5934762 0.03814,0.81641 0.400066,0.90797 1.6261022,1.206727 2.5134642,1.607027 4.5682204,1.1668067 7.4826664,1.4824291 17.2429414,1.3386438 z"
       sodipodi:nodetypes="csccccccccccccccccccccssccc" />
    <path
       style="display:inline;fill:#000000;stroke-width:0.207722;stroke-dasharray:none"
       id="path76"
       d="m 4.2562991,6.8870045 c 0.00878,4.3303805 -0.016051,21.1915015 -0.00257,22.0529425 l 2.0746356,0.629279 0.011064,-0.05532 c 0.1455997,-0.727999 0.010586,-1.429269 0.016466,-2.171679 0.01833,-1.92229 0.039734,-3.833656 0.035304,-5.756256 -0.0057,-2.88804 0.011326,-5.786034 0.035186,-8.673594 -0.01461,-1.67759 -0.020408,-3.3546504 -0.042671,-5.0311504 z"
       sodipodi:nodetypes="cccsccccc" />
    <path
       style="display:inline;fill:#000000;stroke-width:0.207722;stroke-dasharray:none"
       id="path77"
       d="m 4.30936,28.93197 c 0.8836027,0.571083 6.067187,3.629964 14.377544,2.671666 2.161803,-0.277591 9.721047,-2.537406 9.304678,-2.26156 0.03059,-0.0152 -0.836972,-1.21368 -1.501636,-1.20149 -7.772285,2.917903 -12.595359,3.310217 -20.1600442,0.60095 z"
       sodipodi:nodetypes="cccccc" />
    <path
       style="display:inline;fill:#000000;stroke-width:0.207722;stroke-dasharray:none"
       id="path78"
       d="m 12.331285,24.480008 c 2.284829,-3.287534 6.14978,-5.530594 10.579486,-7.04976 1.769311,-0.606789 3.288553,-0.830827 5.279935,-0.86503 1.857241,-0.09116 3.476919,0.562462 4.444324,2.18988 l 0.06484,-2.2208 v 0 c -1.041495,-1.709328 -2.820877,-2.227014 -4.719663,-2.18576 -6.383608,0.115304 -13.343267,3.927336 -16.10159,7.94121 z"
       sodipodi:nodetypes="cscccsccc" />
    <path
       style="display:inline;fill:#000000;stroke-width:0.207722;stroke-dasharray:none"
       d="m 19.583975,18.00972 c -1.305609,7.61338 8.247951,11.19093 9.907189,-2.84508"
       id="path79" />
    <path
       style="display:inline;fill:#000000;stroke-width:0.207722;stroke-dasharray:none"
       id="path89"
       d="m 1.5097454,14.814059 c 2.2836372,-1.150927 5.3312642,-1.519716 7.784399,-1.232553 0.5454078,0.0638 0.6574438,0.0957 1.1862176,0.19839 0.868935,0.18291 1.705556,0.46292 2.514905,0.79955 0.456038,0.19879 0.896013,0.42508 1.331063,0.65834 0.200451,0.10768 0.394645,0.21949 0.550618,0.37682 l 0.85369,-2.03747 v 0 C 11.415662,11.430246 5.6843111,10.826902 1.1489864,13.155696 Z"
       sodipodi:nodetypes="cccccccscc" />
    <path
       style="display:inline;fill:#000000;stroke-width:0.207722;stroke-dasharray:none"
       d="m 3.1013634,13.315246 c 0.287257,10.76243 9.0448666,4.34784 7.8200006,-0.26606"
       id="path90"
       sodipodi:nodetypes="cc" />
    <path
       style="display:inline;fill:#000000;stroke-width:0.264999;stroke-dasharray:none"
       id="path91"
       d="m 4.6303244,25.894206 c 0.439757,-0.0139 0.877691,0.0221 1.31456,0.0674 0.834007,0.1019 1.644492,0.31603 2.436536,0.5907 0.725948,0.27697 1.4165438,0.63996 2.0863276,1.03187 0.290643,0.16795 0.577695,0.34243 0.83008,0.5647 0.0921,-0.554713 0.406384,-1.636988 0.343198,-1.686824 -1.7851136,-1.746161 -4.1228261,-2.001285 -6.4707977,-2.17169 z"
       sodipodi:nodetypes="cccccscc" />
    <path
       style="display:inline;fill:#000000;stroke-width:0.264999;stroke-dasharray:none"
       d="m 5.0227844,24.787956 c -2.472124,5.9216 5.0592296,3.44947 4.5992988,1.14982"
       id="path92" />
    <path
       style="display:inline;fill:url(#linearGradient36);stroke:#f7f7f7;stroke-width:0.00843394;stroke-linecap:round;stroke-linejoin:round;stroke-dasharray:none;stroke-opacity:0.868805;paint-order:fill markers stroke"
       d="m 55.381279,115.30533 c -7.555094,-0.27042 -15.124989,-1.65282 -24.328395,-4.4428 -5.453553,-1.65322 -6.811013,-2.19253 -6.810216,-2.70564 6.06e-4,-0.38992 0.20377,-0.47663 1.876472,-0.80091 3.181456,-0.61677 6.217061,-2.17118 8.291733,-4.24585 l 0.98023,-0.98023 0.967737,0.49147 c 1.776324,0.90212 4.610577,2.58385 5.368086,3.18519 0.41186,0.32696 0.823104,0.59447 0.913875,0.59447 0.09077,0 0.477669,-1.41445 0.859773,-3.14322 l 0.694734,-3.14322 -0.492869,-0.537439 C 42.818238,98.612995 40.171647,96.759708 38.294402,95.790148 35.083869,94.131974 29.868114,92.679832 25.712737,92.287234 l -1.470748,-0.138956 v -9.698727 -9.698725 l 0.963593,-0.123388 c 7.718027,-0.988293 15.39289,-9.362005 16.472554,-17.972495 0.115231,-0.918981 0.259063,-1.720427 0.319627,-1.780991 0.152467,-0.152467 3.7984,1.049799 6.486214,2.138863 2.393711,0.969897 6.074722,2.860208 7.151101,3.672308 l 0.659522,0.497592 0.324662,-0.784978 c 0.178565,-0.431738 0.916811,-2.195283 1.640547,-3.918988 1.216238,-2.89668 1.289264,-3.153475 0.964351,-3.391059 -0.610067,-0.446091 -5.973512,-2.64416 -8.508703,-3.487069 -7.224131,-2.401906 -14.071171,-3.51738 -21.733179,-3.540624 l -4.489924,-0.01362 -0.123419,-1.026988 c -0.222721,-1.853281 -0.147367,-11.474373 0.08987,-11.474373 0.119248,0 1.100592,0.222531 2.180765,0.494513 5.557792,1.399425 13.209061,2.669167 19.612929,3.2548 7.029718,0.642867 10.090775,0.744424 25.712737,0.853072 l 15.975369,0.111106 V 34.104624 31.95074 L 72.47239,31.94944 C 63.96487,31.948704 55.224061,31.854802 53.048368,31.740755 40.954327,31.106797 33.849227,29.721326 28.493934,26.952721 c -3.832784,-1.98149 -4.855949,-3.056535 -4.19704,-4.409851 0.909625,-1.868259 3.385312,-3.654212 6.054775,-4.367896 2.546336,-0.680765 6.517578,-1.188654 12.959331,-1.657389 4.689494,-0.341233 23.520693,-0.473054 29.414966,-0.20591 13.182848,0.597482 21.230707,1.676505 24.341745,3.263638 0.851166,0.434231 1.943764,2.173119 2.866385,4.561894 1.210874,3.135107 1.296214,3.85029 1.271244,10.653597 -0.0212,5.784708 -0.34028,15.571893 -0.59918,18.38064 l -0.11419,1.238817 -2.524627,0.336673 C 77.845182,57.430342 56.08992,69.123253 45.833409,82.767626 l -1.067443,1.420033 0.847261,4.093612 c 0.465993,2.251484 0.899444,4.145795 0.963226,4.209577 0.06378,0.06378 0.743756,-0.728533 1.511055,-1.7607 1.773272,-2.3854 6.858531,-7.508148 9.626682,-9.69765 3.675335,-2.907048 9.294437,-6.459289 13.743889,-8.688501 l 2.079334,-1.041762 v 2.409617 c 0,4.974097 1.312244,9.466837 3.863211,13.226496 1.25733,1.853073 3.833703,4.123468 5.735507,5.054337 2.153623,1.054126 3.671247,1.425187 5.828952,1.425187 3.069458,0 6.031462,-1.043817 8.693309,-3.063544 l 1.096162,-0.831736 -0.130972,1.491201 c -0.07203,0.82016 -0.191943,4.744634 -0.266463,8.721054 l -0.135491,7.229853 -4.176919,1.44714 c -12.139023,4.2057 -22.531074,6.50489 -30.85087,6.82563 -1.507557,0.0581 -3.014878,0.1282 -3.3496,0.15574 -0.334722,0.0275 -2.343054,-0.012 -4.46296,-0.0879 z"
       id="trunk"
       transform="scale(0.26458333)" />
  </g>
  <metadata
     id="metadata1">
    <rdf:RDF>
      <cc:Work
         rdf:about="">
        <cc:license
           rdf:resource="http://creativecommons.org/publicdomain/zero/1.0/" />
        <dc:title>Betula Logo v2.0</dc:title>
        <dc:date>2026-07-09</dc:date>
        <dc:creator>
          <cc:Agent>
            <dc:title>Timur Ismagilov &lt;https://bouncepaw.com</dc:title>
          </cc:Agent>
        </dc:creator>
      </cc:Work>
      <cc:License
         rdf:about="http://creativecommons.org/publicdomain/zero/1.0/">
        <cc:permits
           rdf:resource="http://creativecommons.org/ns#Reproduction" />
        <cc:permits
           rdf:resource="http://creativecommons.org/ns#Distribution" />
        <cc:permits
           rdf:resource="http://creativecommons.org/ns#DerivativeWorks" />
      </cc:License>
    </rdf:RDF>
  </metadata>
</svg>
