<svg xmlns="http://www.w3.org/2000/svg" width="200" height="60" fill="none">
    <path fill="#000"
          d="M86.696 38.312c0 2.928-1.2 5.184-3.648 6.816-2.112 1.44-4.752 2.112-7.824 2.112-.912 0-2.256 0-4.032-.096Q68.528 47 67.16 47c-.192 0-2.4.096-6.672.288q-.504 0-.576-.432v-.912c0-.192.096-.336.192-.432s.624-.144 1.584-.192 1.728-.24 2.208-.528c.768-.48 1.104-1.344 1.104-2.544V18.056c0-1.248-.384-2.064-1.104-2.544-.48-.288-1.2-.432-2.208-.48-.96-.048-1.488-.096-1.632-.24-.096-.096-.144-.48-.144-1.2 0-.384.192-.576.48-.576.48 0 1.2 0 2.064.096 1.008.096 1.68.192 2.064.192h2.64c.768 0 1.92-.048 3.504-.144s2.736-.144 3.504-.144c2.496 0 4.704.72 6.672 2.208 2.16 1.584 3.264 3.6 3.264 6 0 2.16-.912 3.936-2.688 5.28-1.44 1.104-3.36 1.824-5.712 2.16 3.168.144 5.712.96 7.68 2.496 2.208 1.728 3.312 4.128 3.312 7.152M79.16 21.416q0-2.808-1.872-4.608c-1.248-1.2-2.784-1.776-4.656-1.776q-1.872 0-2.592.864c-.48.528-.72 1.44-.72 2.688v9.36c1.008.144 1.872.192 2.592.192 2.064 0 3.792-.624 5.184-1.824s2.064-2.832 2.064-4.896m2.64 16.08c0-2.4-.912-4.272-2.784-5.616-1.632-1.152-3.696-1.776-6.24-1.776-1.152 0-2.304.144-3.456.528v9.744c0 1.728.336 3.024 1.008 3.744.72.768 1.92 1.2 3.6 1.2 2.352 0 4.272-.72 5.712-2.16s2.16-3.312 2.16-5.664m25.591-2.976c0 .432-.048.72-.192.816s-.432.144-.912.144l-12.096.144c-.048.864-.048 1.296-.048 1.392 0 2.16.672 3.984 1.968 5.424 1.344 1.536 3.12 2.304 5.232 2.304 1.296 0 2.496-.432 3.696-1.248 1.008-.672 1.536-1.104 1.536-1.2v-.048c.096 0 .288.096.48.288q.288.288.288.432c0 .096-.048.192-.096.288-2.064 2.928-4.848 4.368-8.352 4.368-2.592 0-4.704-.912-6.288-2.736C91.07 43.16 90.35 41 90.35 38.36q0-4.536 2.736-7.776c1.92-2.304 4.32-3.456 7.296-3.456 2.16 0 3.888.72 5.136 2.064s1.872 3.168 1.872 5.328m-3.936-2.064c0-1.104-.384-1.968-1.152-2.64s-1.632-1.008-2.736-1.008c-2.496 0-4.224 1.68-5.088 5.04l6.48-.048c1.632 0 2.496-.432 2.496-1.344m19.921 11.04c0 1.104-.768 2.112-2.208 2.976-1.296.768-2.496 1.152-3.696 1.152-3.216 0-4.848-1.776-4.848-5.28v-11.04c0-.816-.288-1.296-.864-1.536-.24-.096-.72-.192-1.584-.24-.528-.048-.864-.192-.864-.48 0-.384.192-.72.48-.912 1.92-1.248 3.648-2.448 5.136-3.648q1.223-1.008 1.296-1.008.288 0 .288.288V27.8h6.144q.288 0 .288.864t-.288.864h-6.144v12.24c0 2.064.912 3.12 2.736 3.12.768 0 1.584-.336 2.4-.96l1.2-.96c.336 0 .528.144.528.528m25.641.864c0 .48-.048.768-.096.816l-.912.384c-.96.288-2.4.816-4.272 1.536l-1.488.672c-.288 0-.48-.192-.48-.48v-3.264q-4.032 3.6-7.2 3.6c-1.728 0-3.168-.48-4.272-1.536s-1.68-2.448-1.68-4.176v-8.976c0-1.104-.096-1.872-.384-2.256s-.864-.624-1.776-.72c-.768-.048-1.152-.24-1.152-.48v-.528c0-.288.192-.48.576-.528.144 0 1.2-.144 3.072-.384 2.112-.24 3.12-.384 3.12-.384q.432 0 .432.432v11.568c0 3.504 1.392 5.28 4.176 5.28 1.488 0 3.216-.864 5.088-2.592v-9.6c0-1.536-.576-2.4-1.776-2.688l-.864-.144c-.384-.096-.576-.192-.576-.432v-.528c.048-.24.24-.432.576-.48.672-.048 1.68-.192 3.024-.384 2.16-.288 3.168-.432 3.072-.432q.432 0 .432.432V42.44q0 1.584 1.008 1.584c.336 0 .96-.096 1.824-.336h.24c.192 0 .288.192.288.672m12.452 2.256c0 .288-.096.528-.24.576-.096.048-.24.048-.432.048-.528 0-1.296 0-2.304-.096Q156.981 47 156.189 47c-.528 0-1.296.048-2.352.144s-1.824.096-2.352.096c-.432 0-.672-.192-.672-.624 0-.048.048-.144.048-.288s.048-.24.048-.288c0-.24.144-.432.528-.48s.816-.144 1.2-.192c1.056-.24 1.584-1.248 1.584-2.928V19.448q0-2.016-1.008-2.592-.072-.072-.72-.288c-.576-.192-.864-.48-.864-.768 0-.144.048-.288.096-.432s.192-.288.432-.384q5.256-2.448 5.616-2.448c.24 0 .336.096.336.384v29.664c0 .96.192 1.584.528 1.92.24.288.864.576 1.824.816.288.096.48.144.624.192.24.144.384.288.384.48zm21.049-2.544s-.048.096-.096.288c-.96 2.208-2.208 3.36-3.84 3.36-1.008 0-1.824-.384-2.496-1.104-.624-.672-.96-1.536-1.104-2.544-2.112 2.352-4.512 3.552-7.104 3.552-1.008 0-1.872-.624-2.544-1.968-.624-1.104-.912-2.256-.912-3.36 0-.912.768-1.728 2.352-2.544 1.2-.48 2.4-1.008 3.552-1.488.72-.288 2.304-.816 4.656-1.584v-2.736c0-2.592-1.248-3.888-3.696-3.888-2.352 0-3.552.72-3.552 2.064 0 .096.048.192.096.384s.048.336.048.432c0 .192-.384.528-1.104.96s-1.2.624-1.44.624c-.432 0-.672-.336-.672-.96 0-1.344.864-2.544 2.592-3.504l5.136-2.928c2.304 0 3.984.528 4.992 1.488s1.488 2.592 1.488 4.896v8.832c0 1.584.48 2.4 1.344 2.4.288 0 .672-.192 1.104-.528s.672-.48.72-.48c.288 0 .48.096.48.336m-7.536-1.872v-4.272c-4.416 1.728-6.624 3.072-6.624 4.08 0 .528.192 1.152.576 1.824.432.768.912 1.152 1.392 1.152 1.584 0 3.168-.912 4.656-2.784"/>
    <path fill="#000" stroke="#000" stroke-linecap="round" stroke-width="2.538"
          d="M24.692 41.539C10.154 48.46 3.231 30 17.077 27.691h-2.308C5.54 2.308 33.231 0 35.54 12.231l-4.616 3.923C47.077 0 49.385 25.384 45.693 27.692l-3.231-2.769c18.461 14.308-2.308 25.846-9.231 14.308z"/>
    <path stroke="#000" stroke-linecap="round" stroke-width="2.538"
          d="M24.692 41.539C10.154 48.46 3.231 30 17.077 27.691m-2.308 0C5.54 2.308 33.231 0 35.54 12.231m-4.616 3.923C47.077 0 49.385 25.384 45.693 27.692m-3.231-2.769c18.461 14.308-2.308 25.846-9.231 14.308"/>
    <path fill="#fff" d="M17.077 55.385q6.923-2.308 9.23-23.077h6.924q0 20.769 4.615 23.077z"/>
    <path stroke="#000" stroke-linecap="round" stroke-linejoin="round" stroke-width="2.538"
          d="M17.077 55.385q6.923-2.308 9.23-23.077h6.924q0 20.769 4.615 23.077"/>
    <path fill="#000" d="M33.23 39.23c-4.615 0-4.615 6.924 0 4.616ZM22.386 50.77c3.923 2.307 8.538-2.309 1.615-4.616Z"/>
    <path stroke="#000" stroke-linecap="round" stroke-width="2.538"
          d="M33.23 39.23c-4.615 0-4.615 6.924 0 4.616M22.386 50.77c3.923 2.308 8.538-2.307 1.615-4.615"/>
</svg>
