<?xml version="1.0" encoding="UTF-8" standalone="no"?>
<!-- Created with Inkscape (http://www.inkscape.org/) -->

<svg
   width="200"
   height="50"
   viewBox="0 0 52.916665 13.229166"
   version="1.1"
   id="svg1"
   inkscape:version="1.4.4 (dcaf3e7, 2026-05-05)"
   sodipodi:docname="logo.svg"
   xmlns:inkscape="http://www.inkscape.org/namespaces/inkscape"
   xmlns:sodipodi="http://sodipodi.sourceforge.net/DTD/sodipodi-0.dtd"
   xmlns:xlink="http://www.w3.org/1999/xlink"
   xmlns="http://www.w3.org/2000/svg"
   xmlns:svg="http://www.w3.org/2000/svg">
  <sodipodi:namedview
     id="namedview1"
     pagecolor="#ffffff"
     bordercolor="#000000"
     borderopacity="0.25"
     inkscape:showpageshadow="2"
     inkscape:pageopacity="0.0"
     inkscape:pagecheckerboard="true"
     inkscape:deskcolor="#d1d1d1"
     inkscape:document-units="mm"
     inkscape:zoom="5.2528542"
     inkscape:cx="86.334016"
     inkscape:cy="44.261651"
     inkscape:window-width="1868"
     inkscape:window-height="1022"
     inkscape:window-x="52"
     inkscape:window-y="30"
     inkscape:window-maximized="1"
     inkscape:current-layer="svg1" />
  <defs
     id="defs1">
    <linearGradient
       inkscape:collect="always"
       xlink:href="#linearGradient34"
       id="linearGradient36"
       x1="24.106836"
       y1="65.785675"
       x2="101.21291"
       y2="65.785675"
       gradientUnits="userSpaceOnUse"
       gradientTransform="matrix(0.09916971,0,0,0.09916971,1.4412281,0.20530542)" />
    <linearGradient
       id="linearGradient34">
      <stop
         style="stop-color:#ededed;stop-opacity:1;"
         offset="0.15291263"
         id="stop32" />
      <stop
         style="stop-color:#ffffff;stop-opacity:1;"
         offset="0.49514565"
         id="stop33" />
      <stop
         style="stop-color:#ededed;stop-opacity:1;"
         offset="0.84951454"
         id="stop34" />
    </linearGradient>
  </defs>
  <g
     inkscape:label="Layer 1"
     inkscape:groupmode="layer"
     id="layer1" />
  <g
     id="g36"
     style="display:inline"
     transform="matrix(0.37481466,0,0,0.37481466,1.4412281,0.20530542)">
    <path
       id="betulin"
       style="display:inline;fill:#ffffff;fill-opacity:1;stroke:#f7f7f7;stroke-width:1.465;stroke-linecap:round;stroke-linejoin:round;stroke-dasharray:none;stroke-opacity:0.868805"
       d="m 5.0206836,24.786186 c -2.472124,5.9216 5.0592304,3.44947 4.599299,1.14982 m -4.991759,-0.04357 c 0.439757,-0.0139 0.877691,0.0221 1.31456,0.0674 0.834007,0.1019 1.644492,0.31603 2.436536,0.5907 0.725948,0.27697 1.416544,0.63996 2.0863284,1.03187 0.290643,0.16795 0.577695,0.34243 0.83008,0.5647 0.0921,-0.554713 0.406384,-1.636988 0.343198,-1.686824 -1.7851144,-1.746161 -4.1228264,-2.001285 -6.4707984,-2.17169 z m -1.528961,-12.57896 c 0.287257,10.76243 9.0448674,4.34784 7.8200014,-0.26606 m -9.4116194,1.764873 c 2.283638,-1.150927 5.331265,-1.519716 7.784399,-1.232553 0.545408,0.0638 0.657444,0.0957 1.1862184,0.19839 0.868935,0.18291 1.705556,0.46292 2.514905,0.79955 0.456038,0.19879 0.896013,0.42508 1.331063,0.65834 0.200451,0.10768 0.394645,0.21949 0.550618,0.37682 l 0.85369,-2.03747 v 0 C 11.413562,11.428476 5.6822106,10.825132 1.1468856,13.153926 Z M 19.581875,18.00795 c -1.305609,7.61338 8.247951,11.19093 9.907189,-2.84508 m -17.159879,9.315368 c 2.284829,-3.287534 6.14978,-5.530594 10.579486,-7.04976 1.769311,-0.606789 3.288553,-0.830827 5.279935,-0.86503 1.857241,-0.09116 3.476919,0.562462 4.444324,2.18988 l 0.06484,-2.2208 v 0 c -1.041495,-1.709328 -2.820877,-2.227014 -4.719663,-2.18576 -6.383608,0.115304 -13.343267,3.927336 -16.10159,7.94121 z M 4.3072596,28.9302 c 0.883603,0.571083 6.0671874,3.629964 14.3775444,2.671666 2.161803,-0.277591 9.721047,-2.537406 9.304678,-2.26156 0.03059,-0.0152 -0.836972,-1.21368 -1.501636,-1.20149 -7.772285,2.917903 -12.595359,3.310217 -20.1600444,0.60095 z M 4.2541986,6.8852338 c 0.0088,4.3303812 -0.01605,21.1915022 -0.0026,22.0529432 l 2.074636,0.629279 0.01106,-0.05532 c 0.145599,-0.727999 0.01059,-1.429269 0.01647,-2.171679 0.01833,-1.92229 0.03973,-3.833656 0.0353,-5.756256 -0.0057,-2.88804 0.01133,-5.786034 0.03519,-8.673594 -0.01461,-1.67759 -0.02041,-3.3546511 -0.04267,-5.0311511 z M 23.255023,8.473922 C 16.686932,8.4929087 10.164695,8.7892981 7.2634416,7.0287273 6.6350826,6.6474197 6.1845156,6.4510868 6.3879766,5.9239286 6.8308346,5.3048272 6.9510876,5.2326849 7.6450586,4.8820349 10.371237,3.8881567 24.532656,4.0075369 25.906538,5.2802784 c 0.464853,0.6615736 0.745644,1.5028843 0.818762,1.9215243 0.0983,0.83745 0.126451,0.8305009 0.112131,1.6697809 -0.03732,1.5643904 -0.07576,2.8653424 -0.151518,4.4281024 -0.112478,2.27472 -0.233472,4.54898 -0.354357,6.82324 -0.08448,1.58346 -0.169364,3.16692 -0.254645,4.75035 -0.03048,0.88482 -0.03151,1.77051 -0.04065,2.65589 -0.01565,0.53047 0.0021,1.06299 -0.04112,1.59221 -0.008,0.0698 -0.08728,0.379081 -0.09527,0.448821 l 2.623816,0.05062 c -0.02608,-2.947107 0.03916,-5.902866 0.196142,-8.847353 0.120931,-2.27455 0.241863,-4.54912 0.354655,-6.82411 0.07606,-1.56473 0.155298,-3.12954 0.194148,-4.6958609 0.01559,-0.85061 0.03712,-1.70405 -0.05051,-2.55347 -0.0656,-0.44549 -0.183622,-0.87551 -0.403859,-1.28397 -0.24482,-0.42634 -0.883921,-1.162983 -1.391539,-1.339433 C 21.752393,2.8974037 15.813208,3.2370853 10.210581,3.2299109 c -1.7806384,0.122 -3.2536874,0.082064 -4.8737454,0.7959037 -0.765423,0.4147 -1.618281,0.91992 -1.870486,1.74647 -0.07201,0.2359858 -0.06009,0.5934762 0.03814,0.81641 0.400066,0.90797 1.626103,1.206727 2.513465,1.607027 4.5682204,1.1668067 7.4826664,1.4824291 17.2429414,1.3386438 z" />
  </g>
  <path
     style="display:inline;fill:#000000;stroke-width:0.0778573;stroke-dasharray:none"
     id="path75"
     d="M 10.158339,3.3821195 C 7.6965219,3.3892613 5.2518926,3.5003274 4.1644601,2.8404391 3.9289421,2.6975196 3.7600627,2.6239313 3.8363232,2.4263446 4.0023125,2.1942964 4.0473856,2.1672569 4.3074954,2.0358274 c 1.0218115,-0.37252 6.3297196,-0.3277743 6.8446696,0.1492673 0.174234,0.2479678 0.279478,0.5633033 0.306884,0.720216 0.03684,0.3138886 0.0474,0.3112832 0.04203,0.6258581 -0.01399,0.5863565 -0.0284,1.0739726 -0.05679,1.6597179 -0.04215,0.8525981 -0.08751,1.7050237 -0.132818,2.5574503 -0.03166,0.5935038 -0.06348,1.1870077 -0.09544,1.7805005 -0.01143,0.3316436 -0.01181,0.6636125 -0.01524,0.9954665 -0.0058,0.198827 7.87e-4,0.398424 -0.01541,0.596783 -0.003,0.02617 -0.03271,0.142086 -0.03571,0.168225 l 0.983445,0.01898 c -0.0098,-1.104619 0.01467,-2.2124801 0.07351,-3.3161171 0.04533,-0.8525351 0.09065,-1.7050776 0.13293,-2.5577768 0.02851,-0.5864836 0.05821,-1.1729978 0.07277,-1.7600768 0.0058,-0.318821 0.01391,-0.6387031 -0.01893,-0.957078 -0.0246,-0.1669792 -0.06883,-0.3281575 -0.15138,-0.4812545 C 12.150258,2.0761906 11.91071,1.8000858 11.720447,1.73395 9.5951237,1.2919626 7.3690306,1.4192804 5.2690839,1.4165907 4.6016745,1.4623168 4.0495541,1.4473468 3.4423324,1.7149074 3.1554408,1.8703426 2.8357776,2.0597069 2.741247,2.3695098 2.714257,2.4579568 2.718727,2.5919537 2.75554,2.6755127 2.90549,3.0158324 3.3650267,3.1278112 3.697623,3.2778492 5.4098591,3.7151861 6.5022361,3.8334858 10.160531,3.779593 Z"
     sodipodi:nodetypes="csccccccccccccccccccccssccc" />
  <path
     style="display:inline;fill:#000000;stroke-width:0.0778573;stroke-dasharray:none"
     id="path76"
     d="m 3.0365521,2.7866558 c 0.00334,1.6230906 -0.00603,7.9428852 -0.00102,8.2657662 l 0.7776037,0.235863 0.00417,-0.02074 c 0.054574,-0.272865 0.00399,-0.535711 0.00621,-0.813977 0.00686,-0.7205021 0.014896,-1.4369098 0.013235,-2.1575284 -0.00213,-1.0824797 0.00427,-2.1686907 0.013189,-3.2509904 -0.00547,-0.6287853 -0.00761,-1.2573721 -0.01599,-1.8857493 z"
     sodipodi:nodetypes="cccsccccc" />
  <path
     style="display:inline;fill:#000000;stroke-width:0.0778573;stroke-dasharray:none"
     id="path77"
     d="m 3.0564397,11.049432 c 0.3311874,0.21405 2.2740711,1.360563 5.3889147,1.001379 0.8102751,-0.104045 3.6435906,-0.951056 3.4875296,-0.847665 0.01146,-0.0057 -0.31371,-0.454905 -0.562835,-0.450336 -2.9131666,1.093672 -4.7209256,1.240717 -7.55628,0.225245 z"
     sodipodi:nodetypes="cccccc" />
  <path
     style="display:inline;fill:#000000;stroke-width:0.0778573;stroke-dasharray:none"
     id="path78"
     d="M 6.063175,9.3807713 C 6.9195619,8.1485559 8.3682025,7.3078234 10.028521,6.738418 c 0.663164,-0.2274329 1.232598,-0.3114056 1.978997,-0.3242256 0.696121,-0.034169 1.3032,0.2108185 1.665798,0.8207986 l 0.0243,-0.8323878 v 0 C 13.307249,5.7619217 12.640311,5.5678855 11.928618,5.583348 9.5359488,5.6265698 6.927366,7.055371 5.8935062,8.5598299 Z"
     sodipodi:nodetypes="cscccsccc" />
  <path
     style="display:inline;fill:#000000;stroke-width:0.0778573;stroke-dasharray:none"
     d="M 8.7815893,6.9556131 C 8.2922277,9.8092187 11.873042,11.150137 12.494949,5.8892349"
     id="path79" />
  <path
     style="display:inline;fill:#000000;stroke-width:0.0778573;stroke-dasharray:none"
     id="path89"
     d="M 2.0071025,5.7578323 C 2.8630444,5.3264482 4.0053389,5.1882201 4.9248103,5.2958535 c 0.2044261,0.023911 0.2464189,0.035867 0.4446112,0.074358 0.3256902,0.068561 0.639268,0.1735095 0.9426238,0.2996828 0.1709292,0.074507 0.3358389,0.1593261 0.4989019,0.2467557 0.075128,0.040356 0.1479188,0.08227 0.2063795,0.1412378 L 7.3373025,5.2942146 v 0 C 5.7199856,4.4895286 3.5717919,4.2633859 1.8718851,5.1362528 Z"
     sodipodi:nodetypes="cccccccscc" />
  <path
     style="display:inline;fill:#000000;stroke-width:0.0778573;stroke-dasharray:none"
     d="m 2.6036645,5.1960547 c 0.1076686,4.033917 3.3901487,1.6296342 2.9310517,-0.099723"
     id="path90"
     sodipodi:nodetypes="cc" />
  <path
     style="display:inline;fill:#000000;stroke-width:0.0993257;stroke-dasharray:none"
     id="path91"
     d="m 3.1767419,9.9108336 c 0.1648271,-0.00519 0.3289716,0.00825 0.4927164,0.025265 0.3125984,0.038195 0.6163799,0.1184524 0.9132496,0.2214034 0.272096,0.103812 0.5309408,0.239866 0.7819862,0.38676 0.1089374,0.06295 0.2165282,0.128347 0.3111264,0.211658 0.034522,-0.207915 0.1523179,-0.613568 0.1286349,-0.632247 C 5.135369,9.4691868 4.2591603,9.3735627 3.3791061,9.3096918 Z"
     sodipodi:nodetypes="cccccscc" />
  <path
     style="display:inline;fill:#000000;stroke-width:0.0993257;stroke-dasharray:none"
     d="M 3.3238416,9.4961948 C 2.3972535,11.715697 5.2201153,10.789107 5.0477262,9.9271642"
     id="path92" />
  <path
     style="display:inline;fill:url(#linearGradient36);stroke:#f7f7f7;stroke-width:0.000836392;stroke-linecap:round;stroke-linejoin:round;stroke-dasharray:none;stroke-opacity:0.868805;paint-order:fill markers stroke"
     d="M 6.9333734,11.640101 C 6.1841375,11.613287 5.4334334,11.476192 4.5207338,11.19951 3.9799067,11.035561 3.8452875,10.982077 3.8453673,10.931192 c 5.93e-5,-0.03867 0.02021,-0.04726 0.1860883,-0.07942 0.3155043,-0.06117 0.616545,-0.215316 0.8222891,-0.42106 l 0.097209,-0.09721 0.09597,0.04874 c 0.1761576,0.08947 0.45723,0.25624 0.5323515,0.315875 0.040847,0.03242 0.08163,0.05895 0.090627,0.05895 0.009,0 0.047368,-0.140272 0.085266,-0.311713 l 0.068895,-0.311713 -0.04888,-0.05329 C 5.6874969,9.9847335 5.4250358,9.8009435 5.2388695,9.7047919 4.9204816,9.5403515 4.4032373,9.3963432 3.9911499,9.3574093 L 3.8452958,9.3436265 V 8.3818071 7.4199867 l 0.095559,-0.012234 C 4.7062499,7.3097457 5.4673634,6.4793265 5.5744338,5.6254262 5.5858608,5.5342892 5.6001258,5.4548123 5.6061358,5.4488058 5.6212538,5.4336878 5.9828221,5.5529146 6.2493716,5.6609163 6.4867558,5.7571003 6.8518,5.9445625 6.9585448,6.0250979 l 0.065408,0.049343 0.032194,-0.077846 C 7.0738619,5.953782 7.14707,5.7788895 7.2188395,5.6079501 7.3394533,5.3206875 7.3466953,5.2952209 7.3144737,5.2716604 7.2539725,5.2274184 6.7220829,5.0094395 6.4706684,4.925848 5.7542532,4.6876523 5.0752342,4.5770305 4.315395,4.5747257 L 3.8701308,4.5733344 3.857897,4.4714886 C 3.835813,4.2876996 3.84328,3.3335784 3.866797,3.3335784 c 0.011826,0 0.1091452,0.022065 0.2162657,0.049037 0.5511642,0.13878 1.3099386,0.2647001 1.9450086,0.3227768 0.6971351,0.063757 1.0006987,0.073829 2.5499245,0.084598 l 1.5842762,0.011019 V 3.5874091 3.3738081 L 8.6282939,3.3736792 C 7.7846054,3.3736068 6.9177821,3.3642928 6.702019,3.3529865 5.5026569,3.2901201 4.7980461,3.1527193 4.2669634,2.878158 3.8868676,2.6816537 3.7854003,2.5750424 3.850744,2.4408341 3.9409533,2.2555592 4.1864642,2.0784472 4.4511949,2.007671 4.7037141,1.9401579 5.0975407,1.8897933 5.7363681,1.8433086 c 0.4650554,-0.033845 2.3325402,-0.046913 2.9170732,-0.020424 1.3073388,0.059249 2.1054427,0.1662592 2.4139627,0.3236542 0.08441,0.043064 0.192763,0.215508 0.28426,0.4524024 0.120081,0.3109075 0.128545,0.3818312 0.126068,1.0565141 -0.0021,0.5736673 -0.03374,1.54426 -0.05942,1.8228022 l -0.01132,0.1228529 -0.250366,0.03339 C 9.1611156,5.9006145 7.0036534,7.0601968 5.9865184,8.4133052 l -0.1058581,0.1408242 0.084023,0.4059621 c 0.046208,0.2232795 0.089198,0.4111376 0.095523,0.4174632 0.00631,0.00631 0.073755,-0.072253 0.1498516,-0.1746086 C 6.3859119,8.9663865 6.8902156,8.4583653 7.1647325,8.2412333 7.5292146,7.9529421 8.0864595,7.6006678 8.5277095,7.3795976 L 8.7339174,7.2762854 v 0.2390054 c 0,0.4932803 0.1301347,0.9388238 0.3831129,1.3116683 0.1246894,0.1837687 0.3801877,0.4089236 0.5687887,0.5012374 0.2135741,0.1045374 0.364077,0.1413353 0.578055,0.1413353 0.304398,0 0.598139,-0.1035153 0.862113,-0.3038112 l 0.108706,-0.082483 -0.01298,0.1478816 c -0.0071,0.081333 -0.01903,0.4705239 -0.02642,0.8648638 l -0.01344,0.716983 -0.414224,0.143512 c -1.2038238,0.417078 -2.2344002,0.645088 -3.0594718,0.676896 -0.1495038,0.0058 -0.2989844,0.01272 -0.3321789,0.01544 -0.033195,0.0028 -0.2323599,-0.0012 -0.4425903,-0.0087 z"
     id="trunk" />
  <text
     xml:space="preserve"
     style="font-size:15.0813px;font-family:'EB Garamond';-inkscape-font-specification:'EB Garamond';writing-mode:lr-tb;direction:ltr;fill:#000000;fill-opacity:1;stroke:#f7f7f7;stroke-width:1.465;stroke-linecap:round;stroke-linejoin:round;stroke-opacity:0.868805;paint-order:stroke markers fill"
     x="14.407974"
     y="11.603119"
     id="text1"><tspan
       sodipodi:role="line"
       id="tspan1"
       style="font-size:15.0813px;fill:#000000;fill-opacity:1;stroke-width:1.465;paint-order:stroke markers fill"
       x="14.407974"
       y="11.603119">Betula</tspan></text>
</svg>
