<?xml version="1.0" encoding="UTF-8" standalone="no"?>
<!-- Created with Inkscape (http://www.inkscape.org/) -->

<svg
   width="200"
   height="50"
   viewBox="0 0 52.916665 13.229166"
   version="1.1"
   id="svg1"
   inkscape:version="1.4.4 (dcaf3e7, 2026-05-05)"
   sodipodi:docname="logo.svg"
   xmlns:inkscape="http://www.inkscape.org/namespaces/inkscape"
   xmlns:sodipodi="http://sodipodi.sourceforge.net/DTD/sodipodi-0.dtd"
   xmlns:xlink="http://www.w3.org/1999/xlink"
   xmlns="http://www.w3.org/2000/svg"
   xmlns:svg="http://www.w3.org/2000/svg">
  <sodipodi:namedview
     id="namedview1"
     pagecolor="#ffffff"
     bordercolor="#000000"
     borderopacity="0.25"
     inkscape:showpageshadow="2"
     inkscape:pageopacity="0.0"
     inkscape:pagecheckerboard="true"
     inkscape:deskcolor="#d1d1d1"
     inkscape:document-units="mm"
     inkscape:zoom="2.9962322"
     inkscape:cx="92.449445"
     inkscape:cy="87.610033"
     inkscape:window-width="1863"
     inkscape:window-height="1022"
     inkscape:window-x="57"
     inkscape:window-y="30"
     inkscape:window-maximized="1"
     inkscape:current-layer="svg1" />
  <defs
     id="defs1">
    <linearGradient
       id="linearGradient34">
      <stop
         style="stop-color:#ededed;stop-opacity:1;"
         offset="0.15291263"
         id="stop32" />
      <stop
         style="stop-color:#ffffff;stop-opacity:1;"
         offset="0.49514565"
         id="stop33" />
      <stop
         style="stop-color:#ededed;stop-opacity:1;"
         offset="0.84951454"
         id="stop34" />
    </linearGradient>
    <linearGradient
       inkscape:collect="always"
       xlink:href="#linearGradient23-1"
       id="linearGradient10"
       x1="23.135166"
       y1="64.051338"
       x2="101.33464"
       y2="64.051338"
       gradientUnits="userSpaceOnUse"
       gradientTransform="matrix(0.0084536,0,0,0.0084536,5.6039954,0.05867051)" />
    <linearGradient
       id="linearGradient23-1">
      <stop
         style="stop-color:#f8f8f8;stop-opacity:1;"
         offset="0"
         id="stop24" />
      <stop
         style="stop-color:#ffffff;stop-opacity:1;"
         offset="0.49514565"
         id="stop28" />
      <stop
         style="stop-color:#f7f7f7;stop-opacity:1;"
         offset="0.95330697"
         id="stop25" />
    </linearGradient>
  </defs>
  <path
     style="font-size:15.0813px;font-family:'EB Garamond';-inkscape-font-specification:'EB Garamond';stroke-width:1.35942;stroke-linecap:round;stroke-linejoin:round;stroke-opacity:0.868805;paint-order:stroke markers fill"
     d="m 13.219945,11.367976 q -0.181927,0 -0.293881,-0.04198 -0.111955,-0.02799 -0.111955,-0.111954 0,-0.167932 0.461813,-0.251897 0.531786,-0.09796 0.811673,-0.32187 0.279885,-0.22391 0.279885,-0.7277057 V 3.6151148 q 0,-0.5037961 -0.209915,-0.7416998 -0.209914,-0.2379037 -0.727705,-0.2798867 -0.237904,-0.027989 -0.349858,-0.09796 -0.111955,-0.083967 -0.111955,-0.1819263 0,-0.083967 0.111955,-0.1119547 0.111954,-0.041983 0.293881,-0.041983 0.377846,0 0.587762,0 0.209914,0 0.39184,0.013994 0.195923,0 0.475808,0 0.265892,0 0.461814,-0.013994 0.195921,-0.027989 0.433824,-0.041983 0.251898,-0.013994 0.657734,-0.013994 1.637337,0 2.435014,0.4758074 0.811671,0.461813 0.811671,1.6093484 0,0.4758074 -0.167931,0.8396601 -0.153938,0.3498583 -0.307877,0.503796 -0.223909,0.2239094 -0.405834,0.3498584 -0.181926,0.1119546 -0.531786,0.251898 -0.05598,0.013994 -0.05598,0.069972 0,0.041983 0.05598,0.069972 0.32187,0.09796 0.657734,0.2518981 0.349859,0.1539376 0.64374,0.4058357 0.307875,0.2379037 0.489801,0.6437393 0.195921,0.3918414 0.195921,1.0075921 0,0.7696883 -0.251898,1.2175073 -0.237904,0.4478179 -0.573768,0.6857229 -0.335863,0.237903 -0.629744,0.39184 -0.433825,0.22391 -1.007593,0.349859 -0.573767,0.125949 -1.371444,0.125949 -0.181926,0 -0.54578,-0.02799 -0.363852,-0.02799 -0.783682,-0.02799 -0.363854,0 -0.615751,0.01399 -0.251899,0.01399 -0.531786,0.02799 -0.265891,0.02799 -0.671727,0.02799 z m 3.344646,-0.587762 q 0.615751,0 1.147535,-0.279886 0.531785,-0.279887 0.853656,-0.7556952 0.321869,-0.4898013 0.321869,-1.0915576 0,-0.5457791 -0.181927,-0.8956373 Q 18.523798,7.3935851 18.285895,7.1696758 18.047991,6.9457664 17.85207,6.8478061 17.670143,6.7358514 17.278302,6.6238968 16.886461,6.4979477 16.256715,6.4979477 q -0.447818,0 -0.629744,0.1819263 -0.167932,0.1819264 -0.167932,0.3218698 v 2.7848723 q 0,0.5877619 0.279887,0.7976769 0.29388,0.195921 0.825665,0.195921 z M 16.102778,6.1061064 q 0.377847,0 0.811671,-0.083967 0.447819,-0.083966 0.881643,-0.3218696 0.153937,-0.083967 0.391842,-0.4058357 0.237904,-0.3218697 0.237904,-0.9236261 0,-0.4058357 -0.153938,-0.8256658 -0.153937,-0.433824 -0.587762,-0.7277049 -0.433825,-0.2938811 -1.301473,-0.2938811 -0.573768,0 -0.755694,0.1539377 -0.167932,0.1539377 -0.167932,0.4758074 v 2.4350142 q 0,0.3638527 0.237903,0.4478187 0.237904,0.069973 0.405836,0.069972 z m 7.640905,5.4018126 q -0.769689,0 -1.343457,-0.377847 -0.573767,-0.377846 -0.895637,-1.063569 -0.321869,-0.6997168 -0.321869,-1.6093486 0,-0.8116713 0.363853,-1.469405 Q 21.92442,6.3160214 22.54017,5.9101857 23.15592,5.50435 23.883626,5.50435 q 0.559774,0 0.993598,0.2239094 0.433824,0.2239093 0.671727,0.629745 0.251899,0.3918413 0.251899,0.9096317 0,0.4338244 -0.41983,0.4338244 h -2.952805 q -0.195921,0 -0.279885,0.1119546 -0.06997,0.09796 -0.06997,0.4058357 0,0.6717281 0.293881,1.2315014 0.293882,0.5457791 0.783682,0.8816428 0.489803,0.32187 1.077565,0.32187 0.419829,0 0.755694,-0.153937 0.349858,-0.167933 0.615751,-0.475807 0.05598,-0.06998 0.08396,-0.08396 0.02799,-0.02799 0.06997,-0.02799 0.111955,0 0.111955,0.1399437 0,0.265892 -0.251898,0.587762 -0.209916,0.265892 -0.503797,0.461813 -0.29388,0.19592 -0.643739,0.293881 -0.349858,0.111954 -0.727705,0.111954 z M 22.456204,7.2676361 h 1.273484 q 0.335864,0 0.573768,-0.013994 0.237904,-0.013994 0.461813,-0.055977 0.06998,-0.013994 0.08396,-0.083967 0.02799,-0.083966 0.02799,-0.2239094 0,-0.4058357 -0.363853,-0.6857223 -0.349858,-0.293881 -0.83966,-0.293881 -0.32187,0 -0.643739,0.1959206 -0.32187,0.1819264 -0.531785,0.4618131 -0.209914,0.2798867 -0.209914,0.5597733 0,0.1399434 0.167931,0.1399431 z m 6.409397,4.2262889 q -0.685723,0 -1.077564,-0.41983 Q 27.41019,10.654265 27.41019,9.8285993 V 6.5819137 q 0,-0.1119547 -0.08396,-0.1539377 -0.08396,-0.055977 -0.363852,-0.055977 h -0.08396 q -0.06997,0 -0.125948,-0.083967 -0.04198,-0.09796 -0.04198,-0.1959207 0,-0.027989 0.04198,-0.083966 0.04198,-0.055977 0.05599,-0.069972 0.279887,-0.1959207 0.503796,-0.3918414 0.237904,-0.1959208 0.41983,-0.3778471 0.195921,-0.1959207 0.32187,-0.3498583 0.06998,-0.069972 0.111955,-0.1119547 0.05598,-0.055977 0.125949,-0.055977 0.06998,0 0.125948,0.027989 0.06998,0.027989 0.05598,0.125949 l -0.06997,0.6297451 q -0.01399,0.1539376 0.06997,0.209915 0.08396,0.055977 0.265893,0.055977 h 1.595354 q 0.05599,0 0.09796,0.09796 0.04198,0.083967 0.04198,0.209915 0,0.1259491 -0.04198,0.2518981 -0.04198,0.1119547 -0.09796,0.1119547 h -1.38544 q -0.349857,0 -0.461813,0.055977 -0.09796,0.055977 -0.09796,0.3358639 v 2.7568839 q 0,0.5597735 0.237904,0.8816435 0.237904,0.321869 0.685723,0.321869 0.405835,0 0.629744,-0.05598 0.223909,-0.06998 0.405836,-0.195921 0.02799,-0.02799 0.05598,-0.02799 0.05598,0 0.06997,0.06997 0.02799,0.05599 0.02799,0.125949 0,0.06997 -0.237904,0.279887 -0.22391,0.209914 -0.601756,0.391841 -0.363853,0.181927 -0.797677,0.181927 z m 6.871206,0.06997 q -0.09796,0 -0.09796,-0.111955 0,-0.139944 0.02799,-0.405835 0.04198,-0.279887 0.04198,-0.461814 0,-0.02799 0,-0.04198 0,-0.02799 0,-0.04198 -0.545779,0.531784 -1.105552,0.769688 -0.54578,0.22391 -1.203513,0.22391 -0.447819,0 -0.811672,-0.195921 -0.363846,-0.181937 -0.573762,-0.545789 -0.209914,-0.377848 -0.209914,-0.9236267 V 6.9877494 q 0,-0.3078754 -0.139944,-0.4898017 -0.139943,-0.1819263 -0.461813,-0.3078754 -0.06997,-0.027989 -0.125949,-0.069972 -0.05598,-0.041983 -0.05598,-0.1539376 0,-0.1259491 0.05598,-0.1679321 0.06997,-0.041983 0.153937,-0.055977 0.475808,-0.027989 0.727706,-0.069972 0.265893,-0.055977 0.657733,-0.1539377 0.04198,-0.013994 0.05598,-0.013994 0.02799,0 0.05598,0 0.153939,0 0.139944,0.1959207 -0.04198,0.3218696 -0.06998,0.5457789 -0.01399,0.2099151 -0.01399,0.5317848 v 2.7288951 q 0,0.3358639 0.167932,0.6297446 0.167932,0.279886 0.433825,0.461813 0.279885,0.181927 0.573766,0.181927 0.363854,0 0.629746,-0.04198 0.279886,-0.04198 0.545778,-0.237903 0.153938,-0.111956 0.391842,-0.363854 0.237887,-0.2518947 0.237887,-0.6857206 V 6.889789 q 0,-0.2938809 -0.181927,-0.4338243 -0.167932,-0.1539377 -0.391841,-0.209915 -0.22391,-0.055977 -0.363853,-0.055977 -0.125948,0 -0.209915,-0.041983 -0.08397,-0.055977 -0.08397,-0.1959207 0,-0.1259491 0.08397,-0.1679321 0.09796,-0.041983 0.209915,-0.041983 0.433825,-0.013994 0.713712,-0.027989 0.29388,-0.027989 0.51779,-0.069972 0.237903,-0.055977 0.489801,-0.125949 0.02799,-0.013994 0.06998,-0.013994 0.04198,-0.013994 0.06997,-0.013994 0.181927,0 0.181927,0.1539377 0,0.013994 -0.01399,0.055977 0,0.027989 -0.01399,0.069972 -0.01399,0.041983 -0.04198,0.2379037 -0.01399,0.1959207 -0.04198,0.4058357 -0.01399,0.209915 -0.01399,0.3218697 v 3.2326906 q 0,0.3778477 0.06997,0.5457807 0.08397,0.153936 0.181927,0.153936 0.111954,0 0.32187,-0.01399 0.223909,-0.02799 0.32187,-0.02799 0.06997,0 0.139943,0.02799 0.06998,0.02799 0.06998,0.153937 0,0.111956 -0.05598,0.153939 -0.05598,0.02799 -0.139944,0.04198 -0.54578,0.06997 -0.93762,0.209915 -0.391842,0.139943 -0.699717,0.265892 -0.04198,0.01399 -0.125949,0.04198 -0.08396,0.04198 -0.153938,0.04198 z m 2.798873,-0.223909 q -0.06997,0 -0.181926,-0.02799 -0.09796,-0.01399 -0.09796,-0.09796 0,-0.111954 0.09796,-0.153937 0.111954,-0.05598 0.223909,-0.09796 0.209914,-0.06997 0.405836,-0.153938 0.19592,-0.09796 0.19592,-0.377847 V 3.3772111 q 0,-0.4058357 -0.153937,-0.671728 -0.139944,-0.2798868 -0.489802,-0.3498584 -0.111955,-0.027989 -0.111955,-0.1819264 0,-0.1399433 0.09796,-0.167932 0.363852,-0.083966 0.629744,-0.167932 0.265893,-0.09796 0.489802,-0.1959206 0.237904,-0.09796 0.461813,-0.1819264 0.05599,-0.027988 0.08396,-0.027988 0.02799,0 0.04198,0.041983 0.02799,0.027989 0.02799,0.055977 0,0.125949 -0.05598,0.5457791 -0.04198,0.4058357 -0.04198,1.3574505 v 6.9971671 q 0,0.279887 0.19592,0.377847 0.19592,0.08396 0.405836,0.153939 0.111954,0.04198 0.209914,0.09796 0.111956,0.04198 0.111956,0.153937 0,0.08396 -0.111956,0.09796 -0.09796,0.02799 -0.167931,0.02799 -0.265893,0 -0.433825,-0.02799 -0.153937,-0.01399 -0.307875,-0.02799 -0.139943,-0.01399 -0.391842,-0.01399 -0.237903,0 -0.39184,0.01399 -0.153938,0.01399 -0.307876,0.02799 -0.153937,0.02799 -0.433824,0.02799 z m 4.450195,0.153937 q -0.251898,0 -0.517791,-0.195921 -0.251896,-0.19592 -0.433824,-0.475807 -0.167932,-0.279887 -0.167932,-0.531786 0,-0.4478177 0.237904,-0.6997155 0.237903,-0.2518981 0.755694,-0.4618131 l 1.427422,-0.587762 q 0.279887,-0.1119547 0.32187,-0.1959208 0.05599,-0.083967 0.06997,-0.3638526 l 0.02799,-0.8956373 Q 44.72117,6.721855 44.497262,6.4559626 44.287346,6.1900703 43.88151,6.1900703 q -0.209915,0 -0.41983,0.069972 -0.209914,0.069972 -0.349857,0.1819263 -0.08396,0.055977 -0.111956,0.167932 -0.02799,0.1119547 -0.02799,0.2379037 0,0.055977 0,0.1259491 0.01399,0.069971 0.01399,0.1259489 0,0.069971 -0.181926,0.1959207 -0.167932,0.1119547 -0.391841,0.209915 -0.209916,0.083967 -0.349859,0.083967 -0.06997,0 -0.111954,-0.027989 -0.04198,-0.041983 -0.04198,-0.09796 0,-0.2239093 0.139943,-0.4758073 0.153937,-0.2658924 0.41983,-0.4898017 0.32187,-0.2938811 0.699717,-0.5177904 0.377847,-0.2239094 0.7417,-0.3498583 0.363853,-0.1259491 0.643739,-0.1259491 0.503797,0 0.825666,0.3638528 0.335864,0.3498583 0.32187,0.881643 l -0.06997,3.35864 q -0.01399,0.293881 0.125949,0.475807 0.153938,0.181928 0.377848,0.181928 0.349857,0 0.51779,-0.153939 0.06997,-0.06997 0.111954,-0.06997 0.06997,0 0.111956,0.04198 0.04198,0.04198 0.04198,0.111954 0,0.153939 -0.153938,0.307876 -0.223909,0.223909 -0.489801,0.34986 -0.251899,0.139942 -0.475808,0.139942 -0.643739,0 -1.021585,-0.727705 h -0.04198 q -0.461813,0.377847 -0.881644,0.545778 -0.419829,0.181927 -0.867648,0.181927 z m 0.657734,-0.671728 q 0.279886,0 0.475807,-0.08397 0.195922,-0.09796 0.349859,-0.251897 0.06997,-0.06997 0.111954,-0.181927 0.05598,-0.125949 0.06997,-0.3918417 l 0.02799,-0.6857225 q 0.01399,-0.1539376 -0.01399,-0.2239093 -0.02799,-0.069971 -0.111954,-0.069971 -0.02799,0 -0.09796,0.013994 -0.06997,0.013994 -0.181927,0.055977 -0.7417,0.2658923 -1.035581,0.5597734 -0.279886,0.2798864 -0.279886,0.5177901 0,0.363853 0.209914,0.559774 0.223909,0.181926 0.475807,0.181926 z"
     id="betula-text" fill="#ffffff"
     aria-label="Betula" />
  <path
     id="outline"
     style="display:inline;fill:none;stroke:#ffffff;stroke-width:0.439591;stroke-linecap:round;stroke-linejoin:round;stroke-dasharray:none;stroke-opacity:0.953704"
     d="m 2.4112043,9.288264 c -0.2417818,2.14607 1.2584719,1.548681 1.382592,0.1983516 M 1.9882133,9.7939017 C 2.4607405,9.6380677 2.7907786,9.5924807 3.2535437,9.7489526 3.5058131,9.8451997 3.766812,9.8767747 3.9995635,10.012967 4.1005638,10.071332 4.200315,10.131961 4.2880193,10.2092 4.3200203,10.016433 4.4292393,9.6403381 4.4072816,9.6230204 3.7869493,9.0162283 2.8785954,9.0400134 1.8602091,9.2987259 Z M 2.0553228,5.43369 C 2.155146,9.1736689 5.1984425,6.9445779 4.7727984,5.3412327 M 1.5022311,5.9545326 C 2.2958023,5.5545819 3.3548624,5.4264265 4.2073343,5.5262161 c 0.1895312,0.022173 0.2284639,0.033257 0.412215,0.068941 0.3019567,0.063564 0.5926857,0.1608657 0.873937,0.277846 0.1584745,0.069075 0.3113666,0.1477169 0.4625481,0.2287756 0.069658,0.037416 0.1371408,0.076276 0.191342,0.1309454 L 6.4440363,5.524698 v 0 C 4.9445677,4.7786462 2.952906,4.5689827 1.3768662,5.3782459 Z M 7.7830823,7.0650349 C 7.329379,9.7107072 10.649271,10.953918 11.225862,6.0763605 M 5.2627502,9.3134802 c 0.7939846,-1.1424283 2.137068,-1.9218994 3.6764048,-2.449814 0.61484,-0.2108611 1.142782,-0.2887149 1.834794,-0.3006006 0.645397,-0.031678 1.208239,0.195457 1.544416,0.76099 l 0.02253,-0.7717345 v 0 C 11.978977,5.9583241 11.360637,5.7784265 10.700803,5.7927619 8.4824781,5.832831 6.0639752,7.1575236 5.1054488,8.5523582 Z M 2.4585855,10.862612 c 0.2432416,0.674596 2.0409362,1.100177 4.9265815,0.919486 0.9018904,-0.05648 2.394179,-0.364387 3.226319,-0.71522 -0.112086,-0.319438 -0.197584,-0.48557 -0.428556,-0.481335 -2.4781474,0.63865 -5.4772565,0.859172 -7.0056791,0.208832 z m -0.00192,-7.8471966 c 0.00306,1.504821 -0.00558,7.5485546 -8.931e-4,7.8479086 L 3.1767149,11.082 3.1805549,11.06278 C 3.2517436,8.2894234 3.1587129,11.593757 3.2107702,5.2936953 3.205698,4.7107271 3.2036827,3.8110887 3.1959419,3.2284991 Z M 9.625081,3.1803757 C 7.63874,3.4775761 4.3904117,3.502932 3.2187812,2.9403353 2.8374187,2.7572117 3.4299931,2.5210846 3.6350044,2.4724535 5.4837643,1.9877106 8.780561,2.2093009 9.941516,2.6507552 c 0.285636,0.1086139 0.298523,0.5136309 0.323932,0.6591096 0.03415,0.2910164 0.04396,0.2886013 0.03896,0.5802534 -0.01297,0.5436309 -0.02632,0.9957153 -0.05265,1.5387797 -0.03909,0.7904727 -0.08114,1.5807845 -0.123141,2.3710974 -0.02935,0.5502572 -0.05885,1.1005155 -0.08849,1.650762 -0.0106,0.3074772 -0.01095,0.6152587 -0.01413,0.9229307 -0.0055,0.18434 7.29e-4,0.369393 -0.01428,0.553298 -0.0028,0.02425 -0.03034,0.131733 -0.03311,0.155966 l 0.911785,0.01758 c -0.0091,-1.024128 0.0136,-2.0512649 0.06816,-3.0744827 0.04202,-0.7904136 0.08405,-1.5808336 0.123243,-2.3714006 0.02642,-0.5437482 0.05397,-1.0875252 0.06748,-1.6318261 0.0055,-0.2955898 0.01291,-0.5921629 -0.01754,-0.8873387 C 11.108922,2.9806813 11.06791,2.8312486 10.991379,2.6893072 10.906305,2.5411525 10.715964,2.2986399 10.552079,2.2090947 9.169762,1.4538108 5.0230894,1.2678922 2.7552482,2.0359765 2.1511613,2.2405719 2.2925887,2.9101101 2.3562822,3.0546618 2.4953064,3.3701844 2.6787884,3.3141176 3.0100792,3.3825525 5.3516802,3.8662558 7.0719001,4.0127469 9.657859,3.5690018 Z" />
  <path
     style="display:inline;fill:url(#linearGradient10);fill-opacity:1;stroke:url(#linearGradient10);stroke-width:0.0767177;stroke-linecap:round;stroke-linejoin:round;stroke-dasharray:none;paint-order:stroke markers fill"
     d="m 5.1198829,11.163023 c -0.6397467,-0.03475 -1.2766101,-0.142442 -1.687256,-0.285305 -0.2666395,-0.09276 -0.2406899,-0.07434 -0.2406899,-0.171 0,-0.08006 0.00345,-0.0875 0.05548,-0.119664 0.1413051,-0.08734 0.3316264,-0.34241 0.4221917,-0.565844 0.024102,-0.05946 0.052992,-0.1082013 0.064199,-0.1083113 0.06705,-6.59e-4 0.3303536,0.1373733 0.4800612,0.2516473 0.03979,0.03037 0.074176,0.05292 0.076395,0.05013 C 4.3017231,10.200207 4.4119644,9.6897795 4.4117171,9.652311 4.4114971,9.6181487 4.3888287,9.5899446 4.3085858,9.523939 4.0477276,9.3093698 3.7404984,9.1838981 3.3644281,9.138349 L 3.2079796,9.1194035 v -0.81367 -0.8136668 l 0.092265,-0.010787 C 3.4247733,7.4667261 3.6589662,7.3880098 3.7818397,7.3194107 4.1223667,7.1292995 4.4420455,6.7877273 4.6285859,6.4146742 4.7350352,6.2017919 4.8123112,5.9338261 4.8128282,5.7757961 c 4.138e-4,-0.1279773 0.00389,-0.1289316 0.2190417,-0.060079 0.104437,0.03342 0.2601933,0.088732 0.3461257,0.1229155 0.2041462,0.081197 0.5930755,0.275873 0.6917577,0.3462554 0.042788,0.030515 0.080611,0.05266 0.084057,0.049219 0.00789,-0.00791 0.2730774,-0.6406558 0.2873722,-0.6856949 0.00925,-0.0292 -0.00672,-0.041211 -0.1308623,-0.098586 C 5.8122656,5.2197256 5.2334907,5.0393839 4.6973778,4.9472465 4.2961972,4.8782977 4.1501921,4.8668395 3.6693246,4.8665309 L 3.2080212,4.8662366 3.2080024,4.1470971 c -1.78e-5,-0.6775608 0.00161,-0.7186304 0.028062,-0.7103255 0.060263,0.018911 1.0059863,0.1857975 1.2716451,0.2243939 C 6.0563426,3.8861551 7.2575614,3.8997197 8.76792,3.7092775 9.073422,3.6707545 9.542915,3.6009033 9.624244,3.581872 l 0.03798,-0.0089 -0.01139,-0.1877642 C 9.644634,3.2819339 9.634474,3.1921599 9.628404,3.1857053 9.622404,3.1792553 9.512882,3.1878853 9.385191,3.2047983 7.7883171,3.4168297 5.7683628,3.4361761 4.4675947,3.2519084 4.0032339,3.1861284 3.581416,3.0838829 3.320652,2.9739062 3.1270988,2.8922737 3.0768782,2.8390568 3.1181272,2.75929 3.2313512,2.5403391 3.9892487,2.3475242 5.1209343,2.2497602 5.5232656,2.2150041 6.6112164,2.2015495 7.0991365,2.2252917 8.2660187,2.2820827 9.207208,2.4189801 9.821277,2.6212338 c 0.131869,0.043436 0.184517,0.069558 0.230863,0.1145718 0.08875,0.086181 0.146221,0.2241316 0.182334,0.4375766 0.06319,0.3734562 0.06966,0.5170056 0.05105,1.1312431 -0.02092,0.69021 -0.04656,1.3167137 -0.05854,1.4299718 l -0.0087,0.082114 -0.123468,0.011141 C 9.703138,5.8631968 9.102199,6.0006694 8.5833527,6.1736215 7.2425791,6.6205525 5.9761988,7.4379046 5.2818232,8.3045078 5.0717879,8.5666384 5.0846594,8.4904961 5.1753185,8.9345368 c 0.043168,0.211443 0.0821,0.3844314 0.086511,0.3844177 0.00438,-1.26e-5 0.069376,-0.081069 0.1443695,-0.1801216 C 5.5675179,8.9257416 5.8773648,8.6008299 6.1112134,8.3995333 6.5043446,8.0611281 6.9298126,7.7787387 7.4808224,7.4905032 l 0.2473315,-0.1293792 0.00974,0.2608793 c 0.014905,0.4000887 0.08212,0.6742496 0.2399265,0.9786065 0.2695336,0.5198413 0.7480926,0.8243754 1.2467926,0.7934064 0.08416,-0.00526 0.196359,-0.021126 0.24931,-0.035331 0.13783,-0.036966 0.342467,-0.1392408 0.466545,-0.2331554 0.05876,-0.044492 0.108499,-0.078722 0.110495,-0.076084 0.0019,0.00263 -0.0018,0.091447 -0.0087,0.1973507 -0.0068,0.1059032 -0.01289,0.3225236 -0.01358,0.4813788 -6.93e-4,0.1588574 -0.006,0.4241937 -0.01178,0.5896357 l -0.01052,0.300809 -0.05763,0.01603 c -0.131969,0.03671 -0.723391,0.163638 -1.044469,0.224163 -1.3303,0.250771 -2.7166552,0.362213 -3.7844269,0.304212 z"
     id="trunk" />
  <path
     style="display:inline;fill:#000000;stroke-width:0.0721841;stroke-dasharray:none"
     id="top-right"
     d="M 9.625079,3.1803757 C 7.6387381,3.4775761 4.3904088,3.502932 3.2187788,2.9403353 2.8374162,2.7572117 3.4299907,2.5210846 3.6350019,2.4724535 5.4837614,1.9877106 8.780558,2.2093009 9.941513,2.6507552 c 0.285637,0.1086139 0.298524,0.5136309 0.323932,0.6591096 0.03415,0.2910164 0.04395,0.2886013 0.03896,0.5802534 -0.01297,0.5436309 -0.02632,0.9957153 -0.05265,1.5387797 -0.03909,0.7904727 -0.08114,1.5807845 -0.123139,2.3710974 -0.02935,0.5502572 -0.05885,1.1005155 -0.08849,1.650762 -0.0106,0.3074772 -0.01094,0.6152587 -0.01413,0.9229307 -0.0055,0.18434 7.28e-4,0.369393 -0.01428,0.553298 -0.0028,0.02425 -0.03034,0.131733 -0.03311,0.155966 l 0.911783,0.01758 c -0.0091,-1.024128 0.0136,-2.0512649 0.06816,-3.0744827 0.04202,-0.7904136 0.08405,-1.5808336 0.123244,-2.3714006 0.02642,-0.5437482 0.05396,-1.0875252 0.06748,-1.6318261 0.0055,-0.2955898 0.01291,-0.5921629 -0.01754,-0.8873387 C 11.10892,2.9806813 11.067908,2.8312486 10.991376,2.6893072 10.906302,2.5411525 10.715961,2.2986399 10.552076,2.2090947 9.169759,1.4538108 5.0230865,1.2678922 2.7552458,2.0359765 2.1511588,2.2405719 2.2925863,2.9101101 2.3562798,3.0546618 2.495304,3.3701844 2.6787858,3.3141176 3.0100767,3.3825525 5.3516783,3.8662558 7.0718972,4.0127469 9.657857,3.5690018 Z"
     sodipodi:nodetypes="csssccccccccccccccsssscc" />
  <path
     style="display:inline;fill:#000000;stroke-width:0.0721841;stroke-dasharray:none"
     id="axis"
     d="m 2.4566673,3.0154154 c 0.00306,1.504821 -0.00558,7.5485546 -8.932e-4,7.8479086 l 0.7209426,0.218676 0.00384,-0.01922 c 0.071194,-2.7733576 -0.021838,0.530976 0.030218,-5.7690858 -0.00507,-0.5829681 -0.00709,-1.4826066 -0.014828,-2.065196 z"
     sodipodi:nodetypes="cccsccc" />
  <path
     style="display:inline;fill:#000000;stroke-width:0.0721841;stroke-dasharray:none"
     id="foundation"
     d="m 2.4585855,10.862612 c 0.2432416,0.674596 2.0409362,1.100177 4.9265815,0.919486 0.9018904,-0.05648 2.394179,-0.364387 3.226319,-0.71522 -0.112086,-0.319438 -0.197584,-0.48557 -0.428556,-0.481335 -2.4781474,0.63865 -5.4772565,0.859172 -7.0056791,0.208832 z"
     sodipodi:nodetypes="cscccc" />
  <path
     style="display:inline;fill:#000000;stroke-width:0.0721841;stroke-dasharray:none"
     id="lash1"
     d="m 5.2627502,9.3134802 c 0.7939846,-1.1424283 2.137068,-1.9218994 3.6764048,-2.449814 0.61484,-0.2108611 1.142782,-0.2887149 1.834794,-0.3006006 0.645397,-0.031678 1.208239,0.195457 1.544416,0.76099 l 0.02253,-0.7717345 v 0 C 11.978977,5.9583241 11.360637,5.7784265 10.700803,5.7927619 8.4824781,5.832831 6.0639752,7.1575236 5.1054488,8.5523582 Z"
     sodipodi:nodetypes="cscccsccc" />
  <path
     style="display:inline;fill:#000000;stroke-width:0.0721841;stroke-dasharray:none"
     d="M 7.7830823,7.0650349 C 7.329379,9.7107072 10.649271,10.953918 11.225862,6.0763605"
     id="eye1" />
  <path
     style="display:inline;fill:#000000;stroke-width:0.0721841;stroke-dasharray:none"
     id="lash2"
     d="M 1.5022311,5.9545326 C 2.2958023,5.5545819 3.3548624,5.4264265 4.2073343,5.5262161 c 0.1895312,0.022173 0.2284639,0.033257 0.412215,0.068941 0.3019567,0.063564 0.5926857,0.1608657 0.873937,0.277846 0.1584745,0.069075 0.3113666,0.1477169 0.4625481,0.2287756 0.069658,0.037416 0.1371408,0.076276 0.191342,0.1309454 L 6.4440363,5.524698 v 0 C 4.9445677,4.7786462 2.952906,4.5689827 1.3768662,5.3782459 Z"
     sodipodi:nodetypes="cccccccscc" />
  <path
     style="display:inline;fill:#000000;stroke-width:0.0721841;stroke-dasharray:none"
     d="M 2.0553234,5.43369 C 2.1551464,9.1736689 5.1984425,6.9445779 4.7727986,5.341233"
     id="eye2"
     sodipodi:nodetypes="cc" />
  <path
     style="display:inline;fill:#000000;stroke-width:0.0920885;stroke-dasharray:none"
     id="lash3"
     d="M 1.9882133,9.7939017 C 2.4607405,9.6380677 2.7907786,9.5924807 3.2535437,9.7489526 3.5058131,9.8451997 3.766812,9.8767747 3.9995635,10.012967 4.1005638,10.071332 4.200315,10.131961 4.2880193,10.2092 4.3200203,10.016433 4.4292393,9.6403381 4.4072816,9.6230204 3.7869493,9.0162283 2.8785954,9.0400134 1.8602091,9.2987259 Z"
     sodipodi:nodetypes="ccccscc" />
  <path
     style="display:inline;fill:#000000;stroke-width:0.0920885;stroke-dasharray:none"
     d="m 2.4112043,9.288264 c -0.2417818,2.14607 1.2584719,1.548681 1.382592,0.1983516"
     id="eye3"
     sodipodi:nodetypes="cc" />
</svg>
